<?xml version="1.0" encoding="UTF-8"?>
<svg id="Layer_1" xmlns="http://www.w3.org/2000/svg" version="1.1" viewBox="0 0 1920 1080">
  <!-- Generator: Adobe Illustrator 29.8.1, SVG Export Plug-In . SVG Version: 2.1.1 Build 2)  -->
  <defs>
    <style>
      .st0 {
        fill: #939393;
      }

      .st1 {
        fill: #aaa;
      }

      .st2 {
        fill: #b6b6b6;
      }

      .st3 {
        fill: #b4b4b4;
      }

      .st4 {
        fill: #a1a1a1;
      }

      .st5 {
        fill: gray;
      }

      .st6 {
        fill: #a2a2a2;
      }

      .st7 {
        fill: #9c9c9c;
      }

      .st8 {
        fill: #a7a7a7;
      }

      .st9 {
        fill: #838383;
      }

      .st10 {
        fill: #c5c5c5;
      }

      .st11 {
        fill: #a9a9a9;
      }

      .st12 {
        fill: #b1b1b1;
      }

      .st13 {
        fill: #9d9d9d;
      }

      .st14 {
        fill: #818181;
      }

      .st15 {
        fill: #ccc;
      }

      .st16 {
        fill: #bcbcbc;
      }

      .st17 {
        fill: #c4c4c4;
      }

      .st18 {
        fill: #b5b5b5;
      }

      .st19 {
        fill: #bababa;
      }

      .st20 {
        fill: #a0a0a0;
      }

      .st21 {
        fill: #afafaf;
      }

      .st22 {
        fill: #ababab;
      }

      .st23 {
        fill: #cecece;
      }

      .st24 {
        fill: #919191;
      }

      .st25 {
        fill: #888;
      }

      .st26 {
        fill: #8f8f8f;
      }

      .st27 {
        fill: #c7c7c7;
      }

      .st28 {
        fill: #aeaeae;
      }

      .st29 {
        fill: #828282;
      }

      .st30 {
        fill: #b8b8b8;
      }

      .st31 {
        fill: #9e9e9e;
      }

      .st32 {
        fill: #c2c2c2;
      }

      .st33 {
        fill: #929292;
      }

      .st34 {
        fill: #a5a5a5;
      }

      .st35 {
        fill: #b3b3b3;
      }

      .st36 {
        fill: #969696;
      }

      .st37 {
        fill: #909090;
      }

      .st38 {
        fill: #8a8a8a;
      }

      .st39 {
        fill: #9b9b9b;
      }

      .st40 {
        fill: #a4a4a4;
      }

      .st41 {
        fill: #a8a8a8;
      }

      .st42 {
        fill: #7c7c7c;
      }

      .st43 {
        fill: #858585;
      }

      .st44 {
        fill: #8c8c8c;
      }

      .st45 {
        fill: #999;
      }

      .st46 {
        fill: #7d7d7d;
      }

      .st47 {
        fill: #9a9a9a;
      }

      .st48 {
        fill: #a6a6a6;
      }

      .st49 {
        fill: #d2d2d2;
      }

      .st50 {
        fill: #b0b0b0;
      }

      .st51 {
        fill: #cacaca;
      }

      .st52 {
        fill: #acacac;
      }

      .st53 {
        fill: #bbb;
      }

      .st54 {
        fill: #c6c6c6;
      }

      .st55 {
        fill: #9f9f9f;
      }

      .st56 {
        fill: #cfcfcf;
      }

      .st57 {
        fill: #868686;
      }

      .st58 {
        fill: #b7b7b7;
      }

      .st59 {
        fill: #898989;
      }

      .st60 {
        fill: #878787;
      }

      .st61 {
        fill: #8d8d8d;
      }
    </style>
  </defs>
  <path class="st15" d="M1214.48,1091.51h-7.91c-3.52-8.9,8.82-8.45,7.91,0Z"/>
  <path class="st15" d="M1231.29,1091.51h-6.92c2.89-4.56,7.2-7.96,6.92,0Z"/>
  <path class="st60" d="M506.58,316.38c5.02-2.48,5.51,2.91,5.2,7.33,2.48,8.59,3.91,17.24,4.31,25.97l1.75.26c4.55,26.12,12.66,51.51,24.33,76.19,5.77,13.67,10.47,26.95,16.81,40.54-2.44,5.1-6.21.21-7.28-3.68.13,3.14-.74,5.35-2.61,6.64-1.73-.64-2.13-2.17-2.75-3.68-8.22-19.89-17.89-41.5-24.93-61.58-5.08-14.48-13.15-41.58-14.83-56.36-2.25-4.92-2.25-8.88,0-11.86-.77-6.05-1.14-12.19-1.14-18.29,0-.5.5-.99,1.14-1.49Z"/>
  <path class="st60" d="M512.52,314.4c1.89.3,1.78,1.08,0,1.98l-.67,1.12c-1.93-1.77-3.69-2.14-5.26-1.12-.65.28-1.17.46-1.28.33-.92-1.22-1.59-29.62-.2-30.26,5.77-2.64,6.75,20,6.2,23.98l1.2,3.97Z"/>
  <path class="st0" d="M781.44,162.14c1.98,1.27,3.93,2.69,5.93,3.95,2.94,1.86,5.57,4.17,7.91,6.92,9.68,11.5,16.61,17.32,20.76,32.63,1.19,4.37,1.67,8.25,2.97,12.85-1.09,3.22-.89,4.93.6,5.13,4.45,12.07-8.76,12.34-10.34.79-1.97-14.12-6.55-27.06-13.72-38.8l.73-2.71c-2.58-1.21-7.75-6.2-5.93-8.9l-6.76-5.47c-4.07-1.28-8.84-9.03-2.14-6.39Z"/>
  <path class="st32" d="M542.18,200.7l.42,1.43c-2.16,1.88-3.95,4.04-5.36,6.48.75,1.99-.9,3.88-2.97,2.97-.92,1.75-1.91,2.41-2.97,1.98-2.32,2.26-3.97,4.89-4.94,7.91-.03.96-.69,1.95-1.98,2.97,1.57,3.04-3.69,11.31-6.92,11.86-3.55,4.77-5.86,10.38-6.92,16.81l.65,4.25c-2.97,9.53-4.52,19.42-5.13,29.37l-1.7,1.79c.02,16.16.76,32.04,2.22,47.64.01,3.74-.4,8.3,0,11.86.04-1.92-2.87-4.39-2.93-4.66-.93-4.07,2.44-12.53-3-11.17-.71-2.6,2.64-2.28,2.99-3.66.49-1.92-.03-6.7-.02-9.19.04-12.93-2.3-27.18-1-40.05.4-3.95,4.19-26.88,5.1-29.54.43-1.28,2.36-1.14,2.8-2.35.15-.42,1.52-7.57,1.53-8.07.03-1.41-2.39-3.97-1.51-5.02.28-.34,2.52,1.47,2.95,1,.12-.13-.13-1.95.55-2.89.92-1.27,2.7-1.5,3.84-3.12,3.22-4.58,4.69-11.55,8.83-15.47,3.29-3.11,1.28-1.55,3.52-4.8.97-1.41,4.25-2.38,5.68-3.73,1.13-1.06,3.83-7.18,6.27-4.6Z"/>
  <path class="st16" d="M1465.61,269.91c7.5-6.24,12.55-2.1,20.76-3.95-1.17,2.47-.39,9.26-1.19,10.67-1.28,2.29-11.85,2.64-11.66,8.11l-2.16,8.08c-1.41,1.98-2.84,2.14-3.78-.17-3.08-6.9,5.41-12.53,10.88-15.82l-.72-2.08c5.26-8.35-13.73-1.07-14.54,4.32l-8.96,13.41-2.47.18c-.2,2.04-2.04,5.04-3.95,3.95-1.92.22-1.9-1.52,0-1.98,3.31-6.98,12.34-20.18,17.8-24.72Z"/>
  <path class="st56" d="M1447.81,294.63c-.19.4.13,1.39,0,1.98l.58,1.21c-6.24,10.92-10.02,23.43-11.48,35.91l-.97.46c-1.39,5.91-2.56,11.96-3.52,18.14l-1.43.64c-.51-.45-.98-.92-1.3-1.48-1.96-3.43,4.16-30.05,5.78-35.63l2.45-2.44c.51-3.04,1.67-5.39,2.97-7.91,2.31-4.5,5.33-6.29,3.95-12.36l2.97,1.48Z"/>
  <path class="st46" d="M549.1,469.63c-.15-2.81,1.05-8.19.57-10.94-.75-4.39-7.24-6.48-2.04-10.8,3-.43.42,2.46,1.01,4,.51,1.32,3.63,2.7,4.26,4.56,1,2.97-1.44,2.05-1.69,2.4-1.44,1.99,1.24,1.75,1.84,2.59,2.13,2.99.92,6.38,5.94,5.23,7.76,16.65,16.09,33.73,24.54,50.11,13.59,26.34,29.45,51.35,42.81,77.8,2.7,3.7,4.07.68,5.81-1.36,6.06-2.66,11.46-6.27,16.21-10.84,7.74-2.41,15.39-5.11,22.96-8.12,8.5.61,11.48-4.38,14.44-11.49.71-1.04,1.68-1.83,2.92-1.39.46.16,4.58,6.74,3.78,8.1,2.04-.16,3.71,1.34,5.03,4.49.44-4.24,2.01-6.07,4.7-5.49-.21,4.29.51,8.24,2.14,11.88,2.38,3.5,5.11,5.14,8.9,6.92,10.76,2.23,22.19-.18,30.66-7.43,5.36-3.13,6.55,2.94,1.97,5.45,1.53.62.31,1.59-.99,1.98-3.99,1.73-7.94,3.7-11.86,5.93,2.92.27,2.36,1.2-.06,2.44-7.92,4.08-33.17,1.43-35.02-9.72l-1.5-.63c-1.38-4.16-4.24-4.73-8.6-1.7-8.04,1.83-15.95,4.04-23.75,6.63-8.5,5.67-17.5,10.47-26.98,14.38-2.62,2.05-2.84,4.36-1.97,7.38,17.83,39.84,33.11,79,30.65,123.59-1.39,5.55-2.14,11.23-2.26,17.02.26,4.64-4.33,11.5-3.67,3.74l-1.87-2.04c1.27-16.1.56-31.96-2.14-47.57-2.16-1.52-3.05-4.59-2.67-9.22l-1.23-3.45-2.26-1.44c-5.17-25.34-11.51-50.38-25.28-72.54l.84-3.14c-1.51-3.06-2.43-4.05-2.77-2.97-12.79,5.33-25.3,12.8-36.19,21.61-1.14.84-2.06.47-2.57-.85-.43,1.24-1.92,2.16-4.47,2.78-6.53,6.03-13.92,11.19-22.16,15.47-2.02,3.41-4.42,5.38-7.18,5.91l-1.29,2.74c-8.5,7.44-17.11,14.87-25.81,22.29-4.92,1.95-8.67,5.51-11.26,10.68-2.94,1.91-6.81,4.88-9.43,7.55-.23,4.7-7.31,8.6-11.45,10.66.1,5.04-5.78,10.68-10.89,11.11.53,3.84.66,8.08-4.31,7.91l-1.79,2.19c.2,2.36-.38,3.73-2.93,4.26-3.01,4.69-5.99,9.82-8.95,15.38-2.09.28-3.19,2.36-3.3,6.25-4.05,5.17-6.84,10.82-8.39,16.96-3.77,3.37-4.87,7.73-4.97,12.78-2.04.77-3.08,2.54-3.15,5.32-2.84,2.09-1.98,4.81.07,7.22-1.96,7.51-3.64,15.07-5.03,22.67,1.96,8.6,3.94,18.74,2.1,27.86,3.21,6.57,5.48,13.56,6.82,20.99,2.97,5.41,5.39,10.78,7.26,16.09-.1,2.29,1.19,4.64,3.88,7.05l-.03,2.69c8.72,2.05,7.17,13.67-1.88,10.03-9.05-12.97-16.68-32.06-20.76-47.46-4.65-8.09-5.68-19.63-5.58-29.08-2.01-4.93-2.36-9.07-1.03-12.43-2.23-3.54-2.12-6.25.79-9.42-.57-2.28-.26-3.76.93-4.47-1.72-8.01,2.19-17.4,6.36-23.89-.32-2.89.13-5.31,3-6.32,2.95-8.43,6.82-16.27,10.99-24.12,1.74-.53,2.43-2.14,2.09-4.83l2.48-2.51c5.39-10.06,12.03-19.01,19.91-26.85,2.59-3.86,5.76-7.63,9.5-11.32,1.22-1.1,2.44-2.59,3.95-3.95,1.88-3.83,3.72-5.04,7.35-7.11,2.5-2.67,5-5.24,7.48-7.72,6.8-4.77,11.43-10.34,17.8-15.82,2.21-3.38,5.27-6.13,8.9-7.91,23.16-19.66,48.91-39.27,75.27-54.74,2.94-1.72,10.56-4.13,11.79-6,2.88-4.35-1.04-4.95-2.46-7.56-4.42-8.12-7.04-17.8-13.43-24.64-7.55-15.71-17.38-32.55-25.91-48.73-4.25-8.07-25.19-47.57-25.5-53.1Z"/>
  <path class="st57" d="M624.24,872.02c-1.49,2.95-3.35,5.5-4.94,8.9-1.78,3.76-3.76,7.39-5.93,10.88-1.09,2.22-1.88,4.94-2.97,6.92-.88,4.06-3.19,7.69-6.92,10.88-9.57,15.3-24.31,36.77-40.54,44.49-9.73,4.63-23.65,8.43-35.05,8.93-3.97.18-5.86-.41-9.44-1.03l-8.14-3.56c-4.14-.75-11.57-3.92-11.63-8.71-4.05-.61-7.68-2.45-10.88-5.53-9.27-5.45-26.28-25.51-32.63-34.6,1.14-2.26,4.72-.81,4.9-.99.21-.21,1.27-5.73,1.04-5.93-.2-.17-2.24.25-3.26-.2-4.44-1.98-2.39-4.68-2.76-6.07-.45-1.65-7.46-3.28-1.89-6.58,1.13-.03,2.12.96,2.97,2.97l3.51,1.37c7.22,10.93,14.44,21.82,23.84,30.72l-.65,2.52,8.4,10.91c.72-2.17,1.4-1.96,3.46-1.02l2.87-.22c19.06,19.62,44.75,17.28,65.38.8l2.93.4c2.14-.07,4.08-.62,1.98-1.98-1.32-3.1,6.83-10.24,9.89-8.9l1.98.99c-1.91,8.13,4.14-.43,5.08-4.49,5.78-2.13,9.48-6.61,11.11-13.44-5.66-5.34-.28-5.25,4.33-4.28-3.2-1.9-4.04-5-.43-6.63-.53-2.61,1.59-4.25,6.35-4.92l.87-2.81c-.57-5.68,1.24-8.49,5.41-8.44-1.51-4.45.08-7.02,4.79-7.71,2.06-3.86,4.36-7.41,6.91-10.65l2.03,1.07c.85,1.76.19,3.74-1.98,5.93Z"/>
  <path class="st7" d="M487.8,944.2c1.03.61,4.17,2.56,4.68,2.73,1.55.51,7.46.59,8.05,1.34.49.62-.19,3.29.58,4.85s2.83,1.54,4.15,2.34c.37.22.28,2.83,2.26,1.52.21-.14.56-3.1,3.55-2.74,3.47.42.08,1.66-.52,2.8l7.9,4.96c-12.78-2.21-21.6-9.1-30.65-17.8Z"/>
  <path class="st16" d="M502.63,688.13c-2.82,6.14-9.97,10.43-14.83,14.83.63-2.24,2.29-3.55.99-5.93.64,0,1.37.08,1.98,0,5.05-.7,7.82-7.04,10.13-8.68.67-.48,1.56-.1,1.73-.22Z"/>
  <path class="st3" d="M529.32,664.4c-3.01,2.55-5.9,5.33-8.9,7.91.93-3.65,5.09-7.3,8.9-7.91Z"/>
  <path class="st25" d="M848.67,405.36c1.78-6.45,3.1-8.1,3.95-4.94,1.23,4.7,1.02,11.34,0,16.31.11,3.39-.55,6.85-1.98,10.38-5.13,27.58-19.32,58.05-32.86,82.32-2.3,4.12-6.5,8.05-8.66,12.59l-1.83-1.59,1.18-9.94c2.84-1.01-1.69-7.34-2.12-7.52-.19-.08-3.75.66-3.9.78-.36,9.19-1.55,18.04-3.59,26.53-3.78,2.77-3.94,3.58,1.05,3.36,3.18,3.63,6.42,10.26,2.19,14.35l1.16,6.25c.75,2.84.07,4.29-2.04,4.35-1.94-6.01-2.54-12.08-2.97-18.31-.53-7.64-4.68,3.34-5.48,4.42-10.35,14.11-23.69,26.29-37.04,37.61-3.63,2.87-7.26,4.85-10.88,5.93-.86-.28-.85-.61,0-.99-.12-.85.85-1.55.99-1.98l1.59-2.32c2.14-6.93,5.09-8.83,8.87-5.7.7-1.68,1.9-2.91,3.55-3.66-3.69-2.39-2.46-4.86,1.32-6.42,6.08.68,11.78-1.99,8.76-8.2l.8-1.55c2.77.19,4.7-1.13,5.76-3.96,3.46-.26,11.37-5.95,4.92-4.57l-1.94-1.2c3.86-8.08,15.91-16.36,18.11-24.9,2.03-7.88,1.2-20.03,2.88-28.76,2.59-13.43,7.86-29.82,11.63-43.24l1.48-2.02c-.05-4.07,1.04-7.16,3.27-9.27,2.04,1.83,3.42,4.28,4.15,7.33l1.32.61c-.91,4.45-1.68,8.86-2.31,13.24l1.13,3.74-3.49,16.81c-1.15,1.14-3.99,8.38-2.64,9.25,2.08,1.35,19.91-42.04,19.95-44.97l2.85-2.63c3.45-8.95,5.76-18.18,6.92-27.68-.2-1.12-.91-10.22-.61-10.68.74-1.14,3.32.01,4.57.79Z"/>
  <path class="st5" d="M660.82,773.15c-2.29,6.48-4.26,13.07-5.93,19.77-1.02,4.46-1.55,8.36-2.97,12.85-2.7,5.44-5.01,11.04-6.92,16.81-3.05,8.53-5.5,14.91-7.91,23.73-2.78,4.7-5.09,9.64-6.92,14.83-.2.31-.7.61-.99.99-.5,2.63-1.49,3.95-2.97,3.95-.2.28-1.39.62-1.99,1.42-2.59,3.39-4.46,13.28-10.85,10.45,3.67,9.9-2.7,6.77-3.93,7.94-.72.69,1.8,14.87-7.94,10.84,1.49,4.83-1.72,4.74-1.9,5.01-1.54,2.33,3.67,2.19,2.88,4.37-1.55,4.26-5.25,1.44-7.9.51l3.94,3.44c-2.26,3.1-3.7,9.94-6.47,12.32-1.69,1.45-5.13,1.61-5.91,2.99-.89,1.55-.03,4.26-.63,4.87-.32.32-1.89-.19-2.54.35-.2.16-1.74,4.31-2.28,4.64-2.26,1.38-2.08-2.01-2.85-2.47-.88-.53-2.73.92-3.04.56-.09-.11-.11-2.86,0-2.97.24-.24,2.35.37,2.85-.09.53-.48-.09-2.15.12-2.88-1.57-2.95.01-6.34,4.75-10.15,21.07-31.31,38.22-64.9,51.43-100.76.9-2.58,2.71-4.46,5.12-5.75,4.85-10.76,7.49-22.13,9.7-33.56.7-6.34,3.19-9.46,7.44-9.36-.8-7.63.41-11.45,3.62-11.46-.44,3.14,1.08,2.04,1.87.38,2.71-5.69-.32-15.69,4.07-21.14-.64,11.62-2.41,26.09-4.94,37.57Z"/>
  <path class="st29" d="M801.21,558.61c.94-3.78-1.22-8.11-1.1-11.41.07-1.99,2.89-.64,2.05-4.8-.16-.8-2.58-6.87-2.87-7.11-.75-.6-5.14,2.75-4.99-2.95.05-2.12,2.25-1.84,2.96-3.15,2.94-5.47,1.49-10.27,1.94-15.61.3-3.57,1.44-7.05,1.17-10.71.59-2.17,2.61-.56,3.82-1.08,1.89-.82,2.86-2.63,4.93-2.49-3.09,5.26,2.96,6.8,3.05,7.49.23,1.81-1.59,2.98-1.78,4.17-.5,3.16-.92,7.76-1.26,11.08-.77,7.57-1.81,19.17-.34,26.45,2.2,10.87,13.93,27.4,25.65,28.84,10.89,1.34,25.49-7.92,33.57-14.74,1.28-1.08,1.28-2.84,1.43-2.98,13.67-2.93-1.58,15.03-6.92,17.8-1.57,3.12-6.87,4.84-10.61,5.35,1.23-.03-.21,1.44-1.14,1.69-15.43,4.3-28.38,2.68-39.66-9.02-4-4.59-8.01-11-9.89-16.81Z"/>
  <path class="st60" d="M1230.3,743.49c-3.69-3-10.77-10.52-10.96-15.35-.17-4.43,4.61-9.12,8.99-7.94,8.94,2.41,2.61,5.11,2.07,7.17-.65,2.49,2.84,4.45,4.31,6.29,6.98,8.72,11.77,9.06,20.62,14.94,4.91,3.26,9.61,7.42,14.51,10.7,4.2,3.52,8.52,6.88,12.96,10.08,7.29,9.46-6.54,5.61-11.89,2.67-2-1.1-5.54-3.42-7-4.84-3.74-2.91-7.94-4.79-12.39-6.71-2.67-3.58-5.76-6.81-9.27-9.7-4.64-1.28-9.65-2.74-11.96-7.32Z"/>
  <path class="st45" d="M1372.67,751.4c1.53,1.9.64,4.48-2.65,7.74.2,3.9-1.16,6-4.08,6.29l-4.54,7.42c-14.03,12.64,5.29,7.9,8.96-1.43l8.75-11.95,2.46-.16c-.5-1.8-.27-4.8,1.98-3.95.3-.49.63-.47.99,0l.73.53c-3.1,6.93-7.29,13.34-12.59,19.24-3.46,3.56-4.8,6.08-7.91,9.89-7.43,5.88-15.86,10.45-24.72,13.84-.91.15-2.02-.12-2.97,0-1.73,1.2-3.05,1.2-3.95,0l.33-2.1c2.92-.37,22.23-8.1,21.28-10.51-.48-1.22-5.75-5.32-5.31-.75-5.06,4.84-10.67,10.04-17.7,11.58l1.41,1.78c.22.53.36.97.22,1.09-1.15,1.01-16.77,1.92-14.8-3.23-6.8,1.03-11.82-.23-15.08-3.79,2.1-7.12,6.19-6.5,9.53-.89,5.36.19,14.3.27,3.47-1.18-2.39-.53-4.22-1.26-3.12-3.86,4.85.71,9.35,1.29,14.32.97,15.72-1.02,27.25-10.98,35.53-23.79,1.02-1.58.95-3.86,1.56-4.86-2.25-2.29,3.15-8.83,5.93-7.91,1.21-1.64,1.87-1.64,1.98,0Z"/>
  <path class="st44" d="M1297.53,790.95c-4.78-4.04-9.84-7.77-15.17-11.18-1.52-2.38,1.18-3.63,3.32-4.08-4.82-10.87,6.78-.33,10.43,3.78-.29,5.91,1.02,5.67,5.14,2.47l3.19,1.1c2.36,1.32,6.27,2.88,8.9,3.95.87.35,1.21,1.52,3.49,1.92,5.19.93,11.06.11,16.28.06-.05,4.85-6.1,2.28-9.21,2.98-.8.18-.29,1.93-2.13,2.07-.94.07-9.24.05-9.71-.05-.71-.15-3.06-6.01-5.64-4.01-.42.32,1.48,4.11-2.97,2.97.17,1.5-.94.85-1.98,0-.62,1.29-1.61.96-2.97-.99-.25-.35-.71-.63-.99-.99Z"/>
  <path class="st39" d="M1269.85,759.31c10.82,7.24,24.74,18.19,34.6,23.73-3.29-.98-2.88,2.56-5.62,2.77-7.64.57-4.1-2.2-4.29-5.19-.17-2.77-7.61-10.72-8.87-9.44-.38,2.13,2.63,3.17,1.97,5.4-.6,2.03-5.05.4-3.94,3.47,3.45,2.68,10.5,5.99,13.16,8.88.96,1.04.58,1.91.67,2.02-1.32.44-2.27-.78-2.97-.99-7.27-4.99-14.52-9.93-21.75-14.83-1.14-.66-2.09-1.48-2.97-1.98-3.01-1.92-5.32-3.9-6.92-5.93.3-.87.63-.86.99,0,3.69,1.34,9.28,4.5,12.51,5.59.86.29,6.72,1.02,7.25.34-1.6-7.23-11.53-8.05-13.84-13.83Z"/>
  <path class="st7" d="M696.41,585.3c.86.28.85.61,0,.99-.9-1.23-2.14-1.75-2.51-3.98-11.18,4.35-22.65,5.65-33.42,11.07-1.58.79-2.55,2.67-4.34,3.57-6.37,3.21-13.21,5.88-19.61,9.06l-1.42,6c-.39-.86-2.06-1.51-1.98-3.47s4.25-4.08,2.98-7.4c4.44,4.33,4.31-.35,6.94-1.5,1.13-.49,2.41.37,3.24.13,4.56-1.33,3.32-4.06,3.73-4.43.64-.58,3.65.14,5.15-.17.46-.09,6.6-5.38,7.46-5.78,7.27-3.43,17.34-4.17,24.93-6.49,3.97-1.21,8.07-8.17,8.85,2.42Z"/>
  <path class="st33" d="M755.73,582.34c-6.69,5.68-15.19,12.01-24.5,14.56-15.78,4.32-25.27,2.48-34.82-10.6v-.99c4.81-3.92,5.15-1.46,1.99,2.45,2.58,3.27,5.55,5.05,9.88,4.48l-1,1.95c.86,1.2,24.55,1.61,25.52.77.46-.4.07-1.64.19-1.74,3.59-2.28,7.65-4.55,11.86-4.94,3.57-2.03,7.05-4.44,10.88-5.93Z"/>
  <path class="st37" d="M870.42,558.61c.24-.22,1.85-.31,2.99-1.41,1.32-1.28,4.99-6.27,5.44-6.47,3.68-1.61,1.22,3.56,4.41,2.96.22,1.87-2.63.51-3.52,1.91-.67,1.05-.01,3.23-.63,3.86-.36.37-1.89-.08-2.46.38-1.08.9-1.71,5.49-2.28,6.68-2.14,4.47-7.08,7.51-10.88,10.88-.28.86-.61.85-.99,0l8.51-9.83c4.7-1.91.8-2.57.38-5.99l2.97-.49-4.94-1.49c.33-.3.64-.67.99-.99Z"/>
  <path class="st13" d="M811.1,575.42c5.23.75,9.15,7.75,13.88,9.36,9.27,3.16,16.69-2.38,25.66-.47-.85-4.62,1.99-2.26,4.99-3.4,2.14-.82,4.28-3.07,6.88-3.51h.99c-.15.13.06,1.59-.99,2.43-3.71,2.97-18.4,6.89-23.35,7.33-12.76,1.13-19.92-2.41-28.06-11.74Z"/>
  <path class="st45" d="M654.89,792.93c1.54-6.76,1.46-13.77,5.93-19.77-.98,4.45-1.93,8.67-3.23,13.08-.62,2.11-1.6,4.8-2.7,6.69Z"/>
  <path class="st54" d="M645,822.59c1.87-5.22,2.04-12.47,6.92-16.81-.31.99.02,2.57-.75,3.65l-6.17,13.15Z"/>
  <path class="st54" d="M630.17,861.15c1.62-5.2,2.17-11.33,6.92-14.83-1.21,4.42-4.58,11.19-6.92,14.83Z"/>
  <path class="st54" d="M610.4,898.72v6.92c-4.19-2.45-2.96,2.38-6.92,3.96,2.06-3.29,5.29-7.91,6.92-10.88Z"/>
  <path class="st54" d="M613.36,891.8c1.7-3.46,2.86-8.56,5.93-10.88-1.61,3.44-1.83,8.48-5.93,10.88Z"/>
  <path class="st54" d="M624.24,872.02c.78-1.55,1.32-4.19,1.98-5.93.92-1.27,2-2.71,2.97-3.95.11,3.47-1.95,8.15-4.94,9.89Z"/>
  <path class="st53" d="M1429.03,522.03c2.81,6.32.01,13.99-.09,20.26-.07,4.58,2.27,9.52.06,14.83.19,1.12,2.59.13,2.96.52.53.57-2.96,12.35-3.01,15.29-.1,6.02,1.9,12.34,1.08,18.82-.41,3.21-2.54,5.15-2.8,7.11s.98,4.83.82,7.66c-.45,8.09-4.35,18.37-4.77,27.71-.52,11.51-5.63,28.68-8.1,42.02l-.74,13.93c-2.16,5.56-4.22,11.13-6.18,16.72-3.45,12.24-9.05,21.45-12.85,33.62-.77,1.93-1.76,2.92-2.97,2.97-2.51-.84-2.78-4.41,0-4.94-3.09-1.47-1.2-6.02,1.98-4.94,2.1-5.84,4.62-11.53,7.91-16.81l-.36-4.78c17.46-57.99,24.95-121.5,22.89-181.42l2.18-.67c.04-3.24.7-5.87,1.98-7.91Z"/>
  <path class="st50" d="M1432.98,466.66c.05,4.11-.61,7.57-1.98,10.38,1.61,2.53,2.66,7.07.49,10.12.22,5.32.06,10.52-.49,15.59.6,6.16-.06,12.26-1.98,18.29-.04.32.04.67,0,.99-.42,3.11-1.31,5.19-1.98,7.91-2.06-1.68-2.25-3.79-1.88-6.3,2.25-20.79,3.7-41.67,4.37-62.64l1.46-2.24c3.85-26.75,7.42-53.89,10.72-81.43-.8-10,1.15-20.08,5.1-29.3.71-7.93,1.7-15.84,2.97-23.73-2.46-3.82,2.72-14.67,6.92-15.82,1.16-2.33,2.15-2.99,2.97-1.98-11.46,20.08-11.11,45.06-13.94,67.62-2.12,16.89-4.32,33.89-6.87,50.48-.9,5.85-.37,9.91-.94,13.81-1.31,9.1-3.85,19.07-4.95,28.26Z"/>
  <path class="st39" d="M1263.92,767.22c-.25-.09-.64.05-.99,0-.05.67-.71.67-1.98,0-3.12-2.13-6.67-3.95-9.89-5.93-4.23-3.46-8.51-6.76-12.85-9.89-3.96-2.53-4.39-2.84-7.91-5.93v-1.98c.64.52,5.62,4.3,5.97,4.45,1.51.69,3.99-.86,6.83,1.03,2.43,1.62,8.18,10.32,8.94,10.84,2.63,1.83,9.83.27,11.88,7.4Z"/>
  <path class="st41" d="M1303.47,792.93c.39.12,1.09,1.48,2.66,1.75,2.81.49,15.42-.26,16.12.24-5.5,6.07,3.7,5.23,8.48,4.97,1.28-.07,2.24-1.02,2.39-1.03,1.29-.08,2.7.16,3.95,0-.74,1.04-1.82,1.53-2.97,1.98-5.94,1.89-11.55,1.89-16.81,0-3.86-.38-4.34.75-7.91-1.98-2.86-1.45-5.69-2.96-8.48-4.54l.57-1.39c.53.17,1.44-.17,1.98,0Z"/>
  <path class="st22" d="M1478.46,276.83c-7.29,7.25-7.14,5.66-10.88,15.82-.69,1.89-1.3,4-1.98,5.93-1.86,2.25-4.54,5.47-5.93,7.91l-2.97,1.98c-2.76-3.63.16-9.9,4.85-10.88,1.77-4,2.37-8.66,1.8-13.97.88-1.66,13.72-10.64,15.1-6.79Z"/>
  <path class="st53" d="M1432.98,466.66c.35,4.27-.53,9.14.03,13.31.2,1.49,2.02,2.77,1.84,3.86s-2.87,2.67-2.87,3.1v18.79c0,.31-.92,1.55-.98,2.96-.2,5.16,2.69,7.92-1.99,12.36.58-4.71,1.98-14.3,1.98-18.29v-25.71c0-2.11,1.71-8.18,1.98-10.38Z"/>
  <path class="st15" d="M1415.19,676.26c-.21,5.28-.42,9.46,2.06,14.24l-5.73,5.73c.61,4.24.92,8.08-3.25,10.68,3.07-10.91,4.97-20.14,6.92-30.65Z"/>
  <path class="st15" d="M1388.49,751.4c-5.24,10.52-7.31,14.96-15.82,23.73,2.79-5.26,7.24-9.84,10.29-14.94,1.02-1.7.95-3.64,1.58-4.84.11-1.84,2.48-5.46,3.95-3.95-.46-.34-.8-.66-.75-.86.5-1.81,3.11-8.45,4.7-7.05.85-1.1,1.74-2.24,2.97-2.97-1.9,6.08-1.1,7.64-6.92,10.88Z"/>
  <path class="st15" d="M1364.76,785.02c-5.03,6.17-16.86,12.51-24.72,13.84l24.72-13.84Z"/>
  <path class="st15" d="M1272.82,775.13c7.62,4.4,15.38,8.5,21.75,14.83-6.42-1.96-8.27-4.87-12.76-8.47-2.82-2.27-7.34-2.23-8.99-6.36Z"/>
  <path class="st15" d="M1491.17,1079.5c-1.94,1.22-4.63-.01-4.57-2.5.05-2.06,3.4-4.36,2.75-7.23,1.08.29,2.65,4.95,2.76,5.67.14.95-.39,3.71-.94,4.06Z"/>
  <path class="st15" d="M1251.06,761.29c-2.59-1.6-3.34-2.35-5.55-3.85-2.45-1.65-7.01-1.45-7.3-6.04,4.61,2.95,10.47,4.67,12.85,9.89Z"/>
  <path class="st15" d="M1334.11,800.84c-1.29.5-9.66,2.94-10.46,2.99-2.09.11-4.62-1.87-6.35-2.99,5.63.55,11.18.21,16.81,0Z"/>
  <path class="st15" d="M1301.49,792.93c1.21,2.58,4.31,2.55,6.49,3.94.83.53,1.09,1.74,1.42,1.99-2.32-.56-6.64-1.69-8.45-2.93-2.07-1.41-1.7-2.99-2.43-3.99,1.12-.05,2.02.69,2.97.99Z"/>
  <path class="st15" d="M1262.93,767.22c1.07,4,7.44,2.29,6.92,5.93-4.33-2.47-5.77-3.8-8.9-5.93.64.06,1.35-.09,1.98,0Z"/>
  <path class="st14" d="M1024.66,355.93c.28-.87.83-1.54,1.12-.8.92-4.96,6.85-18.17,13-12.67,4.05,3.63,4.05,36.82,2.5,44.78,1.54,3.87,2.23,17.77-2.87,17.75-6.07-.01-6.97-4.57-5.25-9.66,5.23,1.55,6.12-1.74.24-1.85-1.03-5.37-.32-10.99.41-16.37-2.16-2.22-3.45-4.8-3.86-7.72-.47-.48-8.92,8.02-8.26,10.27-3.21,7.84-6.83,15.75-10.88,23.73-13.88,26.46-27.72,53.49-41.52,81.07-.84,1.85-.73,3.36-.99,3.95.19,2.37-.55,4.05-2.22,5.02l-7.66,19.69c-.31.65-.66,1.31-.99,1.98-.46,3.77-1.78,6.08-3.95,6.92-3.02,4.38-5.61,9.07-7.77,14.08-2.58-.09-4.45.38-5.62,1.41-7.37-1.03-9.38-8.15-2.43-11.54-.38-3.35.48-7.65,1.98-10.88.39-2.86.64-5.9.99-8.9,4.86-29.31,4.52-58.91-1-88.81l-.5-22.86c.96-5.02,2.83-5.78,7.49-6.3.77-3.95,6.18-8.49,7.13-2.73-3.79,10.82-6,22.52-3.23,33.69l1.46,2.16c.41,8.86,1.92,18.07,3.42,27.02l-.93,2.46c.88,11.4,1.43,22.98-.1,34.06,3.41,3.39,3.75,7.83,1.28,12.13,2.66-4,3.39-8.16,2.42-12.88l3.32-8.59c-2.96-1.91.48-9.96,3.95-8.9,5.05-8.38,9.66-16.95,13.84-25.71-.62-1.39.18-4.53,1.98-3.95,2.11-3.91,4.09-7.87,5.93-11.86l-.34-2.14c9.48-17.18,18.82-34.26,28.02-51.25,1.71-5.07,4.97-14.3,9.89-15.82Z"/>
  <path class="st45" d="M553.05,192.79c42.18-27.77,107.03-52.09,158.66-51.46,31.63.39,43.93,4.23,69.73,20.81-3.32-1.04-.91,3.47-.71,3.68.56.59,2.52.54,3.73,1.69,2.14,2.04,3.96,4.29,5.88,6.5l-1.92,1.17c-8.23-6.87-17.35-12.11-27.37-15.71-1.4-2.61-2.98-3.69-4.74-3.21-4.27-2.44-8-2.9-11.21-1.38-9.02-6.52-18.82-10.02-29.5-5.12-1.56.12-3.85.02-4.36-1.45l-.74.97c-9.84-.87-18.42-.19-27.91,2.31-3.65-.69-4.79-.78-8.31.88l-13.96,2.17c-10.34,3.91-19.24,6.94-30.16,8.68-2.77-1.11-5.21.21-7.32,3.94l-2.72-.04c-9.24,4.69-18.72,9.13-28.88,11.73-3.62,4.04-6.24,4.86-11.34,4.47-3.32,5.41-7.35,7.66-12.09,6.75-1.37,3.8-3.69,7.5-6.95,11.07,1.11,4.28-3.75,2.51-5.85.41-4.14,2.95-7.72,7.08-10.74,12.41-6.42,3.14-10.52,10.31-12.97,17.32-2.56,2.96-3,5.24-2.09,9.06-2.33,1.33-3.72,2.34-4.83,4.78,1.34,1.17.98,2.73-1.08,4.68.23,3.33-.65,5.22-2.64,5.69-1.77,7.04-3.17,14.13-4.19,21.27-1.73,21.02-1.11,42.2,0,63.28-.66-.15-1.19-.33-1.28-.64-1.33-4.66-4.45-18.28-4.01-22.44.03-.26.6-.46,1.33-.65.03-.65,0-1.32,0-1.98-1.26-5.67-1.82-11.68-1.67-18.02-2.37-4.59-2.12-7.76.74-9.52-1.37-6.9-1.66-15.43-.95-22.47.76-7.54,1.25-11.99,6.68-18.21-1.61-3.4-.5-6.27,3.33-8.62,2.55-6.85,6.26-12.72,11.15-17.6,3.39-7.08,6.84-12.92,14.25-16.53l.09-2.74-.38-1.35,7.31-6.56Z"/>
  <path class="st60" d="M768.59,427.11c4.08-4.61,7.88-9.55,11.42-14.82l1.73,2.02c7.97-5.34,9.52,2.8,1.95,6.52-4.26,8.06-10.32,15.21-17.23,21.24l-5.79,9.75-.29,1.83c-9.16,11.71-17.3,23.96-24.42,36.73-11.3,17.61-30.76,50.16-32.61,70.71-.54,5.97-.29,13.45.97,19.26-.19-.27-1.19-.32-1.73-1.69-.95-2.41-1.03-6.52-1.25-9.18-1.67.09-1,3.04-1.72,4.69-2.49,5.72-5.37-1.95-7.17-4.69-1.34-2.06-.48-3.29.99-4.94-.18-2.82-.12-3.58,0-5.93l1.98-12.85,4.94-13.84c9.31-19.48,20.57-39.4,32.63-57.34,4.7-8.25,9.98-16.16,15.82-23.73,7.31-7.92,11.79-15.83,19.77-23.73Z"/>
  <path class="st38" d="M1163.07,403.38c2.79-4.8,15.62-21.8,19.99-23.32,2.54-.88,6.54,1.25,7.02,4.02.95,5.51-5.22,8.83-9.66,10.2-16.67,22.23-32.41,46.19-45.03,71.39l.76,3.15c-4.1,5.65-13.68,36.24-9.2,40.98,6.13,6.5,27.43-7.54,32.69-12.2l2.45.68.55,2.28c-8.11,11.09-42.2,28.6-42.26,3.79-.36,3.9-1.62,5.83-3.76,5.79-.77-.12-1.39-.28-1.49-.61-1.84-5.93-.45-15.05.5-21.15,0-.33,0-.66,0-.99,3.29-14.96,11.84-29.34,19.77-42.51-.82-.29-.82-.95,0-1.98.16-.17.82.16.99,0,2.83-5.55,6.13-10.82,9.89-15.82,5.54-7.78,10.82-15.69,15.82-23.73h.99Z"/>
  <path class="st24" d="M834.83,368.78c1.96,4.92,5.67,10.37,10.43,4.27l2.42.68c.19,2.02-.8,3.99-2.97,5.93-2.95,1.52-5.1,2.33-7.91,3.95-3.55,4.69-6.51,5.69-8.89,2.99-4.13,3.68-8.75,6.64-13.85,8.87-1.11,3.36-2.77,5.09-4.97,5.2-13.91,10-23.07,20.85-33.58,34.35-.48.74-.68,1.48-.99,1.98-3.74,4.09-7.36,8.05-10.88,11.86-.45,1.57-1.31,3.36-2.97,2.97l4.51-10.82c6.32-4.75,11-10.26,15.66-16.97.73-1.06.43-2.86,1.61-4.32,1.05-1.31,4.75-2.29,4.91-2.52.67-.9-.93-3.29-2.45-2.94-2.16.49-6.36,9.91-4.95-.99-3.55,4.24-5.37,9.46-9.45,13.29-.59.55-1.75.36-1.93.54,5.03-7.85,10.74-16.09,17.36-22.68,4.76-4.73,11.58-9.76,17.24-13.9,9.02-8.06,18.36-15.85,29.09-21.59.68-.37,1.59-.32,2.55-.16Z"/>
  <path class="st24" d="M1041.46,466.66c.79.25.76.58,0,.99-.24,2.08-.02,4.74,0,6.92-1.62,1.57-1.17,5.36-1.03,7.47.77,11.63,1.49,22.08,7.95,32.08-2.69,1.93-4.62-1.02-5.91-3.25-3.21-5.56-5.59-14.61-2.99-20.48-5.09-2.8-4.01-15.37-.46-19.2l-.53-4.53c-2.63-.95-2.63-2.03,0-2.97.8-2.05,1.13-4.23-1.49-4.58.55-8.19,1.06-16.41,1.53-24.65l1.94-2.41c-2.18-1.03-2.22-3.94,0-4.94-2.96-3.35-4.93,5.55-1.94,7.44-1.86,7.67-2.26,15.45-1.96,23.33l-2.03,1.86c2.78,1.06,1.87,6.7-.99,6.92l.51,4.09c3.49,3.44,2.37,7.37-1.65,10.51-.57,5.2-.52,10.22.15,15.06,1.98.3,2.89,2.28,2.73,5.94,5.15.68,3.64,3.66.99,6.55l.94,1.83c4.19,1.69,6.81,8.06,3.25,11.38-.26.54-.49.95-.64.92-6.97-1.32-9.64-22.36-10.24-28.61-.07-1.73-.02-2.28,0-3.95-.6-26.3,1.85-53.79,6.76-79.4.57-3-1.32-4.39-5.68-4.18-.18-8.06.25-16.17,1.31-24.32,0-3.3-.19-5.73-1.41-6.79-1.78-2.1.24-4.82-4.94-.99-1.05,2.37-2.36,4.02-3.95,4.94-.82-4.05,3.02-5.83,4.11-9.28l4.77-4.56c2.85,3.75.22,10.44,5.95,9.89.16,2.56-2.46,2.85-2.95,5.45-.32,1.72-.34,8.19.12,9.75.65,2.21,2.68.39,3.78,1.08,4.64,2.88-.36,8.37-3.91,4.48v5.93c3.55-2.58,2.53,3,6.91-.5,1.36-1.09,1.44-9.8.98-11.7-.19-.77-2.01-.67-2.02-1.18-.03-1.02,1.82-4,2.08-6.84s.35-22.5.03-24.84c-.25-1.83-1.84-1.3-2.03-2.09-.74-3.16,2.33-11.78-2.69-13.04-4.2-1.06-7.9,6.7-9.64,9.85-.62,1.13-.26,3.11-.73,3.72-.39.5-1.66.01-1.79.15-2.03-1.91,3.17-11.24,5.09-13.85,3.84-5.2,5.98-5.28,11.43-1.03-.17,2.57.84,5.34,2.07,8.27.4,35.58-.04,71.03-1.31,106.34.97,3.51.81,7.18-.48,10.99Z"/>
  <path class="st19" d="M1435.95,337.14c-.2,18.06-2.93,36.26-6.1,54.09-4.57,36.03-8.87,72.09-11.87,108.31l-1.8,6.67c.38,5.34.21,10.61-.51,15.81.88,20.19.72,40.3-.47,60.32,3.03,4.65,1.92,10.99.33,16.19.98,5.72.21,10.54-2.3,14.46-1.11,7.1-2.31,14.51-3.45,21.33l-1.49-.57c-.95-2.33-.95-4.3,0-5.93.29-1.99.74-3.93.99-5.93-.45-.54-.85-1.1-1.11-1.73-.63-1.52,1.42-29.07,2.03-32.74l2.05-3.1c.29-4.95.62-9.89.99-14.83-.98-2.35-.65-4,.99-4.94-.16-2.28-.9-4.52-.99-5.93-3.2-2.48-2.91-10.1,0-12.85l.36-32.87c-.97-3.34-.76-6.55.63-9.64-.99-1.83.93-4.35.99-4.94.33-10.6.99-21.15,1.98-31.64.14-2.14.94-4.21.99-4.94,1.2-3.29,1.83-7.74,0-10.88-1.89-.56-1.9-1.42,0-1.98,1.61-3.48,2.6-7.43,2.97-11.86-1.88-.3-1.77-1.08,0-1.98,1.44-7.51,2.43-15.09,2.97-22.74-2.58-1.25-1.8-2.71.99-2.97-.13-3.72.4-8.66.99-12.85-1.88-.3-1.77-1.08,0-1.98.13-5.33.79-10.27,1.98-14.83.12-.95-.13-2.01,0-2.97-2.04-7.64-1-16.88,2.97-23.73.58-4.27,2.22-9.4,2.95-14.35.26-1.76-.46-3.72,1.99-4.44.89.58.89,1.56,0,2.97Z"/>
  <path class="st11" d="M1210.53,334.18l1.68,1.96c-1.06,12.34-4.29,23.61-9.7,33.82-2.92,1.08-18.81,8.77-10.31,7.34,3.66-2.58,8.52-5.65,11.08-.07,1.02,2.23-2.46,20.44-3.16,22.85-.39,1.36-1.42,2.39-2.45,3.3l-1.98,30.65c.88.24.85.57,0,.99-.28.86-.61.85-.99,0l-1.94-3.51c-.89-15.77.12-33.04,4.99-47.72-3.16-1.83-5.35.4-6.57,6.7-2.55,3.22-6.16,5.76-10.82,7.64-14.86,21.18-28.86,42.9-42,65.17l-2.99,2.37c11.85-26.83,23.27-42.25,40.54-65.75,1.23-1.68,1.31-4.09,2.48-5.42,1.92-2.19,9.37-3.21,10.23-6.62.76-3.01-1.38-6.84-5.08-6.08-3.45.71-16.92,17.83-20.49,21.59-.26-2,.76-3.16,1.74-4.68,5.3-8.26,22.65-26.72,31.18-31.13,1.43-.74,3.93-.47,4.47-.94.23-.2,1.7-4.56,2.16-5.75,1-6.51,2.32-12.77,3.95-18.79.23-2.14.92-5.44.99-6.92-.65-.21-.61-.55,0-.99h.99c.21-4.1.67-8.17,1.37-12.21l1.59.35c.67,3.61.35,7.57-.99,11.86Z"/>
  <path class="st28" d="M1030.59,375.7c.11.12,1.37-.29,1.76.17,1.96,2.3-2,28.36-.77,29.49.2.18,3.37-.28,4.95.49,4.34,2.11-.34,15.8-.91,19.86-2.76,19.58-5.74,45.21-6.01,64.68h-.99l-1.51-.65c1.74-19.07,1.56-37.74.77-57.05-.14-3.52.22-7.05.74-10.52-.12-11.95.9-22.6,1.98-34.6-1.8-2.03-.86-6.36,0-8.9-.17-.87.12-2.02,0-2.97Z"/>
  <path class="st29" d="M779.46,547.73c.48-.39,4.45-2.06,4.61-2.25,1.08-1.24,6.73-14.87,9.06-6.94,1.38,4.67-2.38,3.39-3.52,4.52-.24.24-3.79,4.65-3.97,4.93-.64,1.03.05,2.98-1.19,4.23-.9.91-6.71,2.68-7,2.96-1.88,1.84.62,4.67-5.9,3.44-.58,1.91,2.17,2.77,1.89,4.31-.05.28-3.11,4.24-3.44,4.51-3.41,2.82-9.32,1.14-10.32,2.05-1.88,1.7,2.75,2.58,2.96,3.46.44,1.85-2.41,2.37-3.5,3.45-.9.89-1.38,2.95-2.01,3.04-2.73.4-5.02-4.88-6.3.52-.87,3.67-.07,4.04-5,5.34.46-1.43.93-2.9,1-4.44-3.35-2.56-4.47,1.78-5.24,2.17-1.59.8-13.43,5.83-14.2,5.96-1.31.21-3.15-.88-4.8-.81-5.19.22-3.91,1.68-9.4-.9,7.73.31,14.26.36,21.44-2.79,17-7.45,30.38-25.04,44.81-36.76Z"/>
  <path class="st19" d="M1332.14,403.38c-2.33,19.12-2.4,36.07-1.48,54.86.46,9.35-1.35,15.19,2.16,25.03.65,1.84,5.29,13.44,5.73,14.07.63.92,2.55.67,3.15,1.26,1.53,1.49,1.83,3.73,4.53,4.87,6.44,2.72,17.25,1.31,23.47-1.23,3.7-1.51,9.45-4.75,12.85-6.92,1.52.11,1.19,1.1-.99,2.97.41,3.31-7.23,7.04-10.43,8.56-10.76,5.13-26.22,4.1-34.31-5.28-2.08-2.42-8.13-13.92-8.98-17.05l1.31-2.05c-3.91-25.11-4.36-50.53-.39-75.84l2.37-3.25c.28-.86.61-.85.99,0Z"/>
  <path class="st44" d="M953.47,522.03c.85,1.34.19,2.99-1.98,4.94-.38.79-1.39,1.65-1.98,2.97-1.71,4.77-2.49,9.25-2.91,14.18l-1.75.23c-1.45,19.51-21.5,17.59-13.74-1.11l-.02-12.16c-.05-3.54,4.26-6.1,6.57-5.08-.72,2.59-.64,2.98-3.95,2.98-.42,1.64,1.69.4,2,1.64.25,1.02-.09,2.23-.02,3.3l1.96-1.01c.32.39-.83,4.07,1.47,2.97,2.94-1.4-.06-9.37,4.46-8.88l-1,7.4c6.12,2.3,5.19-11.34,10.89-12.34Z"/>
  <path class="st52" d="M649.94,160.17c-.53,4.83-5.65,5.66-10.03,5.02l-2.83.91c-3.23.87-8.92,1.25-11.84,2.49-2.12.9-3.62,4.89-4.18,5.2-1.66.94-5.29-.48-6.59.34-.63.4-.6,3.26-1.25,3.7s-10.58.37-13.07,1.3c-1.34.5-1.22,2.24-2.4,2.76-4.51,1.96-11.07,3.79-15.61,5.89-3.47,1.6-4.7,5.66-6.37,6.49-1.91.94-7.69,1.83-9.61,3.73-1.57,1.55-.56,8.16-2.17,9.2-1.31.84-4.05.06-5.99.93-1.26.56-2.33,3.1-3.48,3.16-.46.03-1.26-1.18-1.95-1.26-1.82-.21-4.89,4.9-4.41,5.45.23.27,2.46-.54,1.85,1.46-.13.42-2.41,3.93-2.91,4.52h-.99c-.45-.18-.82-.39-.9-.68-.35-1.2-1.77-6.86-1.62-7.23.63-1.56,11.86-11.67,13.18-11.62,4.67,3.21,5.6,3.44,2.8.71.04-1.05,10.47-16.01,14.93-12.78,2.47-5.29,6.43-7.58,11.9-6.87l4.6-4c9.9-2.4,19.08-6.36,27.54-11.91,3.23.39,6.34-1.12,9.32-4.53,6.48.95,13.17-.27,20.06-3.66l2,1.26Z"/>
  <path class="st26" d="M834.83,395.47c3.44-2.44,4.92,1.54,1.62,3.9-1.51,4.25-2.41,7.95-2.61,12.9-2.13,8.28-4.59,17.8-7.73,26.17-1.06,2.82-2.73,6.75-5.12,8.43-3.68.08-2.88-4.03-4.44-5.93-3.14,2.2.45,9.83-4.45,9.88.63-2.26.66-5.13,1.51-7.89,1.02-3.33,3.11-9.29,5.41-11.88.36-.26.36-.92,0-1.98.22-1.17.73-2.02.99-2.97,1.27-1.74,2.26-4.04,2.97-6.92,1.74-4.69,3.38-9.3,4.94-13.84-.15-.39-1.32-.45-.86-2.21.39-1.48,3.62-5.06,4.81-6.69,1.27-1.34,2.26-1.67,2.97-.99Z"/>
  <path class="st61" d="M1277.76,488.41c3.68-2.06,7.07-4.54,10.16-7.46,2.66-2.43,8.25-4.65,8.97.13.19,1.3-14.48,17.87-16.65,18.9-.32.15-.87-.2-1.5-.69-1.18,1.28-8.89,8.42-9.69,8.39-.4-.02-.79-.22-1.19-.48-.15-1.76-.41-3.39-.78-4.88-8.72,7.55-22.5,10.35-32.99,5.02-3.25-1.65-9.7-5.27-6.77-9.04,4.26,3.74,10.43,7.84,16.31,7.91,11.6.12,15.71-3.75,24.22-9.88,2-2.45,4.64-4.42,7.91-5.93.71-.58,1.27-1.39,1.98-1.98Z"/>
  <path class="st8" d="M711.24,148.3c4.03.99,14.3-2.81,20.32-2.02,3.04.4,5.46,3.51,7.79,3.08.89-.16.2-2.35,1.05-2.05,1.36.48.71,2.45,1.45,3.45,3.2,4.32,3.52,1.05,6.03.97,2.97-.08,5.02,1.81,7.41,2.44,1.55.41,4.53-.39,5.31.12.65.43-.11,3.88,1.42,4.92,4.35,2.93,15.34,1.26,18.16,8.88l10.14,5.91c3.37,3.88,3.74,4.96,5.93,8.9-2.55.27-3.08.33-4.72-1.71-7.38-9.13-30.09-22.23-41.97-25.27-3.37-.86-1.52-.21-1.76,2.26-.61-.11-1.36.11-1.98,0-1.67-.51-3.12-1.79-4.33-3.84l-9.82-2.3c-1.01-.73-.42-1.72.31-2.76-5.4.33-10.67.99-15.82,1.98-1.48,1.21-4.64,1.01-4.94-.99-2.63-.32-2.51-1.22,0-1.98Z"/>
  <path class="st17" d="M1215.47,291.66c1.78-2.52.95-6.23,2.24-9.13,1.67-3.77,6.12-8.17,8.69-11.08,2.69-3.04,3.45-6.84,8.36-6.59,5.37.27,6.41,11.1,5.41,15.25-.18.74-1.73.59-1.92,1.37-.79,3.19-.03,7.58-1.02,11.18.73,2.6.4,3.59-.99,2.97-4.98-2.36-3.95-5.57-1.07-9.21-2.75-28.19-17.2,2.6-18.49,14.03-.95,7.7-2.67,14.99-5.16,21.87-3.93,2.83-.34,8.82-2.97,11.86.24-3.35-.39-7.03.05-10.33.71-5.18.57-11.34,1.11-14.69.29-1.78,2.39-3.07,2.76-5.18.43-2.46-.45-5.2.24-7.67.39-1.39,2.39-2.34,2.76-3.66-.82-.3-.82-.63,0-.99Z"/>
  <path class="st2" d="M732,149.29c.48.33.77,1.58,2.2,2.21,4.74,2.11,8.97-.02,11.65,6.68-1.06-.18-3.32.42-3.87-.13-.31-.31.14-1.92-.29-2.55-.68-.99-11.9-2.29-14.1-2.32-9.92-.12-20.82-.79-30.6.14-12.45,1.18-25.6,4.06-36.91,6.77-2.7.65-6.6.38-9.09,1.6-1.89.92-3.39,4.36-5.85,4.88-1.96.41-5.63-1.14-8.04-.48.15-.04,1.04-1.46,2.64-1.78,4.18-.83,7.89,1.12,10.22-4.15.19-.56.41-1.11.73-1.59,1.56-2.33,23.66-6.46,28.31-7.28,3.74-.66,9.99-.92,13.8-.52.07-.71.17-1.27.32-1.28,5.91-.69,13.02-1.21,18.14.78,1.44.07,3.16.92,4.94.99,5.15-1.11,10.43-1.77,15.82-1.98Z"/>
  <path class="st33" d="M512.52,316.38c-.24,4.47,2.26,10.56,2.79,15.59.43,4.06.11,3.87,1.16,8.14,2.75,11.2,4.25,22.71,7.18,33.85,4.67,17.83,12.42,34.83,18.53,52.16-6.45-15.29-12.35-26.67-17.57-43.25-2.3-7.29-5.34-17-6.15-24.41-.27-2.5-1.35-4.88-1.01-7.48l-2.95,2.96c-.99-3.9.26-8.65-.08-12.19-.58-6.03-3.77-12.07-4.38-17.94-.18-1.69,1.09-3.79.4-5.82s-3.6-1.37-3.85-1.61c-3.36-3.11,4.94-.81,5.93,0Z"/>
  <path class="st33" d="M546.13,200.7c5.45,4.42-2.27,5.45-3.9,6.48-5.05,3.22-6.29,9.2-8.54,13.22-1.1,1.97-3.8,3.44-5.2,5.67-2.46,3.91-4.03,9.58-6.62,13.17-.99,1.37-3.09,1.84-3.27,2.16-.87,1.48.87,3.69.6,5.15-.29,1.55-5.33,7.22-6.02,10.69-.83,4.21-.82,19.06-.72,24.07.05,2.15,1.42,5.22,1.11,6.71-.25,1.2-3.11.78-3.09,3.11,0,1.02,1.77,2.73,2.08,4.92.76,5.31,0,13.18-.05,18.34-4.27-2.06-2.41-9.92-2.98-14.32-.42-3.21-1.06-12.06-4.92-12.37,1.61,8.69.59,17.49.95,26.27.05,1.26,1.02,2.26,1.02,2.4.28,6.25-.02,13.31,0,19.77-1-3.04-1.79-8.2-1.97-11.38-1.34-24.31-2.32-48.56,5.92-71.67,1.07-6.39,3.38-11.99,6.92-16.81,2.3-5.05,4.21-7.55,6.92-11.86,3.71-3.96,7-8.24,9.89-12.85,1.26-1.02,1.95-2.09,2.97-2.97,1.94-3.18,5.28-7.95,8.9-7.91Z"/>
  <path class="st34" d="M1397.39,482.48c14.54-11.46,8.23,9.13-.99,12.85-1.78,2.25-4.48,6.39-5.93,7.91,1.48,2.46-4.67,7.13-6.92,5.93-.8.45-3.57-.4-3.95,1.98-.24.84-.58.82-.99,0-2.04.03-1.33-.74,0-1.98l.4-2.6c4.47-3.19,18.19-15.88,4.72-7.23l-2.16-1.04.99-2.97c2.35-1.5,4.72-3.22,6.92-4.94,3.73-2.91,5.13-4.81,7.91-7.91Z"/>
  <path class="st53" d="M544.15,221.47c.55-1.91,1.42-1.9,1.98,0h.99c-3.05,3.54-9.45,4.31-10.4,5.91-1.14,1.92.07,5.19-1,7.9-.58,1.48-6.97,10.65-8.38,12.42-1.31,1.63-4.08.92-2.95,4.77.21.72,1.97.62,2,1.2.06,1.07-2.13,7.46-2.98,6.36l-1.98-4.95c-1.71,6.93-1.52,15.59-4.95,21.76.22-2.71-.43-5.93-.05-8.46.95-6.41,4.87-17.1,7.96-23.18,1.23-2.25,2.73-3.96,4.5-5.15-.76-4.09.38-6.99,3.41-8.69-.41-2.56,1.92-10.4,4.94-7.91,1.75-2.35,5.38-5.89,6.92-1.98Z"/>
  <path class="st30" d="M632.15,593.21c4.99-5.84,2.17-2.36,7.61-4.73,4.51-1.97,6.79-7.62,7.39-7.97,1.2-.7,3.83.67,5.82.41,4.17-.55,9.24-5.03,12.57-6.23,4.48-1.62,11.54-.63,15.34-4.16s6.97-22.01,10.61-4.53l1.96-1.46c.1,1.54.49,4.17-.99,4.94-.27-.42-1.29-.77-1.91-1.79-1.28-2.1.18-5.42-4.37-4.19-1.09.3-2.99,9.31-8.84,11.16-2.05.65-4.32-.48-7.25.58-6.28,2.29-14.49,5.64-20.82,8.88-5.8,2.97-10.62,8.21-17.12,9.08Z"/>
  <path class="st1" d="M814.07,395.47v.99c-1.59,1.8.6,4.27-.45,5.95-2.01,3.21-2.82-1.03-3.04-1.06-1.83-.29-8.81,4.89-10.38,6.45-5.91,5.87-13.29,15.15-18.78,21.54-1.56,1.82-3.76,5.34-5.9,5.68,8.28-12.76,19.17-25.81,31.56-34.18,1.8-1.21,6.06-3.92,4.01-5.36.84-.22,2.46.25,2.98,0Z"/>
  <path class="st18" d="M1353.89,316.38c2.96,1.39-.24,9.38-2.97,9.89-2.85,5.9-4.64,10.09-3.86,17.19l-2.07,5.55c.01.33-.02.66,0,.99l-2.97,1.98c-1.06-.36-1.06-1.35,0-2.97l-1.64-2.21c.4-5.16,1.35-10.19,2.84-15.11,3.18-6.31,13.28-26.96-.72-11.45l-2.46-.9c-1.47,1.39-1.87,4.15-1.21,8.27-7.39,25.71-12.92,49.99-17.29,76.27-2.37,9.87-3.43,19.85-3.17,29.95l-1.07,1.19c-.48,11.93-.06,24.16,1.28,36.68l-1.28,2.86c-.98-3.04-1.64-6.34-1.98-9.89-2-.23-1.91-1.21,0-1.98-.34-5.26-.81-10.57-.99-15.82-1.69-.26-1.44-.99,0-1.98.37-4.98.7-9.93.99-14.83-.05-1.82-.92-3.5-.99-4.94-.16-3.08.36-3.49.99-5.93,1.75-11.34,3.57-22.74,6.2-33.87l-.58-7.15c3.47-11.21,6.85-22.67,10.2-34.12,3-8.3,4.34-12.75,5.14-21.27.53-5.66,3.13-4.69,4.72-7.2,1.84-2.89,2.12-8.46,3.26-11.31,1.85-4.62,7.82-8.69,12.58-9.66,3.22,5.16-2.31,8.49-2.55,10.34-.37,2.8.39,7.64-.4,11.42Z"/>
  <path class="st6" d="M763.64,450.84c-9.48,12.64-19,26.02-27.68,39.55-.26-2,.77-3.17,1.73-4.69,7.78-12.41,13.35-22.18,22.99-33.87.73-.89,2.03-1.88,2.97-2.97.78-.06.78.6,0,1.98Z"/>
  <path class="st15" d="M1012.79,401.41c-2.58,7.11-9,18.37-13,26.06-1.37,2.63-6,7.66-7.21,10.61-2.01,4.91-1.69,6.18-4.56,11.49-.74,1.37-4.62,8.47-4.74,8.96-.44,1.87,1.19,4.78.82,5.17-.31.34-1.81-.72-2.47-.58-2.88.59-6.75,19.11-12.35,21.35,11.14-24.62,23.75-50.47,36.84-74.39,1.04-1.91,3.26-4.97,4.69-6.68.39-1.22,1.05-1.88,1.98-1.98Z"/>
  <path class="st58" d="M852.62,395.47c-1.11,2.95-2.03,5.84-2.75,8.67l-1.2.23c-3.01,2.18-4.33.86-3.95-3.95l-1.24-.57c.78-7.16.04-11.65-6.31-4.02l-2.34-.36c-.73.63-2.01.81-2.97.99,2.63-3.6,4.7-8.02,10.43-7.79,1.76.07,9.92,5.54,10.33,6.8Z"/>
  <path class="st3" d="M838.78,363.84h.99c.99,2.62-2.36,6.65-4.94,4.94-11.3,7.31-20.97,13.96-31.64,21.75,4.36-4.19,10.62-11.5,15.31-14.84s10.64-6.54,15.61-9.1c1.61-.83,2.57-2.76,4.67-2.75Z"/>
  <path class="st35" d="M836.81,383.61c-2.72,5.09-6.6,5.83-11.17,7.92-.62.28-.56,1.84-1.37,1.99-3.74.7-6.24-2.1-10.19,2.94v-.99c.41-.2,4.9-4.11,6.86-5.5,2.29-1.63,5.06-6.01,8.33-5.46.99.17,1.3,2.99,2.11,3.03.34.02,3.66-2.91,5.44-3.94Z"/>
  <path class="st23" d="M1315.33,419.2c.02-.99-.03-1.98,0-2.97.19-6.42,2.15-11.81,2.97-17.8.13-.95-.12-2.01,0-2.97-2.76-1.23-1.56-4.04.99-4.94,5.57-5.18-1.41-10.89-1.03-14.3.3-2.65,2.97-2.87,3.99-4.48-1.54-1.91-2.13-6.72.99-6.92.28-.91,2.22-4.37,2.97-6.92,1.7-5.83,3.01-8.5,4.94-13.84-1.74,10.79-5.6,21.38-7.81,32.23-2.9,14.27-4.41,28.92-8.01,42.91Z"/>
  <path class="st21" d="M1115.61,487.42c0-1.98,0-3.96,0-5.93,1.64-3.88,3.48-9.72,4.94-12.85.53-1.14,2.39-2.81,2.97-3.95,1.45-5.23,5.8-16.88,10.76-19.69.29-.16.68-.15,1.1-.08-.46,4.58-6.38,11.49-8.76,16.45-2.31,4.82-3.6,10.34-5.68,15.08-1.55,3.54-4.8,6.21-5.34,10.98Z"/>
  <path class="st6" d="M979.18,440.95c-3.73,12.07-7.06,15.72-13.84,25.71-.25-2.01.89-3.14,1.74-4.68,3.49-6.37,7.54-12.4,10.13-19.05.29-.74.86-1.56.99-1.98h.99Z"/>
  <path class="st35" d="M748.81,450.84c-3.68,8.88-10.53,15.86-15.82,23.73.2-3.23,2.79-7.16,4.53-9.83,3.45-5.29,7.09-9.35,11.29-13.9Z"/>
  <path class="st28" d="M1024.66,377.68c.1,4.09-.89,6.07-2.97,5.93-3.08,5.88-6.62,11.5-8.9,17.8-.65.66-1.38,1.27-1.98,1.98,2.27-7.68,6.56-16.97,10.88-23.73,1.47-2.3,1.53-3.15,3.95-4.94-.03,1.11-.56,1.99-.99,2.97Z"/>
  <path class="st15" d="M1040.47,522.03c2.44,1.18,11.01,6.47,7.91,7.91-.89-.29-2.5.34-3.94-.47-1.95-1.09-1.47-3.26-2.26-4.19-.71-.83-2.94-1.05-4.22-2.21-7.4-6.77-8.01-19.47-8.36-28.71,2.3,8.79,2.61,18.44,8.03,26.12,1.07,1.52,2.57,1.3,2.84,1.57Z"/>
  <path class="st21" d="M1146.26,427.11c.16-.9-.1-2.01,0-2.97-1.27-1.41-.71-1.95.99-.99,3.39-2.96,7.89-9.27,8.9-13.84,1.98-1.38,4.75-2.46,4.94-5.93h.99c.19,2.01-.56,3.26-1.55,4.87-3.95,6.44-9.67,12.82-14.27,18.86Z"/>
  <path class="st25" d="M819.01,429.09c.7,2.62,6.39,9.44,2.34,10.75-5.82,1.88-2.86-5.07-2.34-8.77.09-.63-.11-1.38,0-1.98Z"/>
  <path class="st15" d="M1415.19,498.3l.99-31.64h.99c-.7,10.77-.98,21.04-1.98,31.64Z"/>
  <path class="st4" d="M822.96,419.2c-.13,1.77-.3,4.41.48,5.95,1.26,2.51,5.17.48,2.48,5.91l-5.92-4.94c.28-1.03-.16-2.27.54-3.89.56-1.31,1.8-2.06,2.43-3.03Z"/>
  <path class="st55" d="M850.65,427.11c.35-1.88,1.98-9.62,1.98-10.38v-16.31h-1.97c-.25,1.16.36,4.45,0,4.95-.14.19-1.52-.13-1.98,0-.86-.28-.85-.61,0-.99,2.29-3.65-1.22-8.11,3.95-8.9,2.29,7,1.94,24.94-1.98,31.64Z"/>
  <path class="st45" d="M1052.34,529.94l-.99.99c-1.12-.61-1.92-.65-2.97-.99.75-2.66-1.69-1.63-2.84-2.55-1.67-1.34-4.02-4.35-5.07-5.36,2.61-5.65,12.46,3.98,11.86,7.91Z"/>
  <path class="st1" d="M763.64,450.84v-1.98c3.65-4.21,5.38-9.49,10.88-11.86-3.36,5.35-7.19,8.92-10.88,13.84Z"/>
  <path class="st21" d="M1136.38,442.93c.05-1.91,1.09-4.27,1.98-5.93s2.8-4.45,3.95-5.93,3.21-2.98,3.95-3.95c-.51,2.96-7.45,13.43-9.89,15.82Z"/>
  <path class="st17" d="M1202.62,360.87c-.16-3.33.55-6.62.99-9.89.36-2.64,1.29-4.26.99-7.91l1.98-.99c-.74,6.96-1.43,12.32-3.95,18.79Z"/>
  <path class="st15" d="M1030.59,387.57c-3.25,1.22-2.91-7.92,0-8.9,1.06,5.25.38,4.62,0,8.9Z"/>
  <path class="st23" d="M1314.34,444.91c.02.66-.02,1.32,0,1.98-1.32,3.35-2.2,5.68-3.95,8.9-.75-3.74,1.19-10.41,3.95-12.85v1.98Z"/>
  <path class="st15" d="M1135.39,444.91c-5.3,4.78-8.58,13.21-11.86,19.77-.12-1.96.18-3.99,0-5.93,3.73.54,3-6.41,3.21-6.74,1.33-2.13,6.49-6.9,8.65-9.08-.04.65.06,1.33,0,1.98Z"/>
  <path class="st35" d="M695.42,545.75c1-6.71,2.26-8.23,4.94-13.84-.15,5.29-3.01,9.54-4.94,13.84Z"/>
  <path class="st56" d="M1426.06,394.49c.09-3.33-.71-11.54,0-13.84.06-.2,1.55-.64,1.98-.99-.57,4.57.19,10.67-1.98,14.83Z"/>
  <path class="st55" d="M822.96,419.2c.38-5.21,2.49-9.42,4.94-13.84,1.99,5.28-.68,3.71-2.22,7.17-1.29,2.88-.56,3.33-2.72,6.68Z"/>
  <path class="st15" d="M1418.15,450.84c.55.09,1.85-.17,1.97,0,.47.63.47,10.15-1.97,10.88.02-.33-.02-.66,0-.99.2-3.25-.28-6.66,0-9.89Z"/>
  <path class="st30" d="M693.45,558.61c.29-5.85-.59-7.14,1.98-12.85-.58,3.87.61,9.18-1.98,12.85Z"/>
  <path class="st15" d="M1275.78,490.39c-3.01,2.45-4.92,3.78-7.91,5.93h-.99c1.71-2.98,5.74-4.7,8.9-5.93Z"/>
  <path class="st15" d="M1314.34,444.91c-.02-.66.01-1.32,0-1.98-.05-3.27-.11-6.62,0-9.89.04-1.08-.3-2.49.99-2.97.12,4.6.75,10.82-.99,14.83Z"/>
  <path class="st12" d="M553.05,192.79c-1.65,3.2-4.43,5.43-6.92,7.91-3.01,2.99-5.77,5.2-8.9,7.91-.27-2.72,2.98-6.02,4.94-7.91,2.15-2.06,8.14-6.11,10.88-7.91Z"/>
  <path class="st45" d="M795.28,173.02c-3.34-.66-5.85-4.32-7.91-6.92.31.2,1.96-.05,3.48.93,2.74,1.78,3.25,4.59,4.43,5.99Z"/>
  <path class="st45" d="M534.27,211.58c-1.8,4.75-5.48,10.5-9.89,12.85,1.24-1.98-.35-.66,1.98-2.97.91-3.05,2.56-5.69,4.94-7.91,1.21-.95,2.46-1.57,2.97-1.98Z"/>
  <path class="st45" d="M510.54,253.1c.3-4.52,1.86-10.3,3.9-14.31.91-1.8.81-1.92,3.02-2.5-2.47,5.41-4.92,11.21-6.92,16.81Z"/>
  <path class="st12" d="M531.3,213.56c-.95,2.4-3.19,6.17-4.94,7.91-.67-5.08,2.32-5.84,4.94-7.91Z"/>
  <path class="st44" d="M1478.46,276.83c-2.03-.15-13.32,7.37-13.72,8.06-.63,1.07,3.28,10.28-2.56,14.74-1.03.78-3.03.71-3.33,1.08-.26.31-1.09,5.59-2.14,7.75-2.8,5.79-5,9.25-6.92,15.82-1.37,7.77-2.36,15.68-2.97,23.73-5.64,35.29-9.29,70.57-14.1,106.02-.21,1.55-.55,3.59-1.72,4.71-.42-1.22-.8-2.44-1.04-3.69s-.47-2.46-.36-3.64c.91-9.54,1.95-19.05,3.41-28.52l-1.83,4.38c.53,4.68-.52,7.26-3.15,7.74-1.68-1.19-1.63-6.43,0-7.91-.59-.33-1.1-.7-1.32-1.2-2.25-5.08,3.57-39.32,6.31-47.97-1.17-2.73-1.9-7.16,1.13-8.73l-.46-5.1c2.29-16.16,5.06-31.92,8.19-47.74-.57-.37-1-.71-.95-.92,2.07-8.5,6.27-15.73,10.84-22.8,5.05-7.58,14.53-26.37,25.65-23.22,6.04,1.71,4,4.46,1.04,7.4Z"/>
  <path class="st18" d="M1441.88,316.38c-1.29,7.01-2.69,13.94-4.22,20.78l-1.71-.02c.12-.95-.11-2.01,0-2.97,1.06-9.09,5.66-31.04,11.86-37.57,1.4-1.47,1.83-.76,3.95-3.95.7,2.79-.47,3.12-1.65,4.77-2.69,3.74-6.29,13.83-8.23,18.96Z"/>
  <path class="st25" d="M583.7,634.74c.98-.58,2.87.58,2.44,1.42-.91,1.78-14.49,10.6-17.27,11.43-3.63,2.77-7.23,6.04-10.88,8.9-5.03,4.6-10.3,8.88-15.82,12.85-7.35,6.36-15.18,12.67-22.36,19.17-10.35,9.36-20.53,20.58-30.04,31.25-2.81,3.89-5.5,7.79-8.09,11.71l-1.8.16c-3.91,5.03-8.31,10.34-11.86,15.82-2.5,2.42-3.93,5.62-4.94,8.9-2.89,4.79-6.1,8.59-7.91,13.84-4.92,9.29-9.95,19.22-10.11,30.03l-1.76,3.58c-.12.6-.74,1.51-.99,2.97-.2,1.74.24,3.33,1.28,4.76-3.58,27.02.63,55.87,14.01,79.2l-1.44,2.05c-.51-.65-1.38-.85-2.97-2.97-2.32-3.08-4.5-3.63-2.97-7.91l-2.95.98c1.88-4.33-2.76-7.17-3-9.42-.77-7.08-2.28-10.06-5.12-17.56-.47-1.25-2.5-2.48-2.51-3.16,0-.32,1.79-2.25,1.84-4.94.06-3.06-.68-12.35-.99-15.89-.16-1.8-1.86-1.31-2.05-2.11-1.96-8.17,3.61-19.37,4.95-26.56.34-1.81-1.87-1.18-2.03-2.1-.05-.27-.03-5.29.03-5.56.16-.74,1.54-.65,1.88-1.46.53-1.28.24-3.51.97-4.6s2.86-.36,3.07-.57c.36-.35-.95-2.48-.9-3.51.07-1.22,2.87-8.25,4.09-9.04.41-.27,1.59.73,1.69.65,1.29-.98.2-5.28.59-6.81.86-3.38,5.09-7.01,6.57-10.27.98-2.17,1.01-5.55,1.76-6.92.63-1.15,2.68-.56,3.49-1.65.68-.91.41-2.78,1.08-3.89,2.29-3.75,6.3-7.01,5.36-11.95l3.94.99c-1.61-5.28,3.04-4.65,2.99-8.89,1.21-.6,1.18,4.24,2.95,1.97.56-.72-.59-6.8.01-7.91.14-.25,2.4,1.17,5.44-.97.44-.31,5.06-4.88,5.21-5.21.55-1.2-1.57-3.75,2.93-5.47,6.7-2.56,2.01-.84,5.2-3.63.9-.79,3.12-.66,3.94-2.03,1.08-1.82-4.02-1.42-1.97-3.43.2-.19,3.66-.51,5.22-1.94,1.41-1.3,1.41-3.7,2.64-4.47.57-.36,2.06.55,3.52-.42,2.67-1.77,2.53-5.77,4.9-8.05,2.62-2.52,7.3-3.21,9.95-4.88,5.32-3.36,8.59-10.12,13.8-13.92,3.05-2.23,4.58,1,2.49-5.88,6.29,3.43,5.23-1.95,7.38-3.99,1.41-1.33,3.53-.55,4.27-1.16.44-.37.24-2.23,1.18-3.23,4.3-4.58,15.36-8.39,20.42-12.73,5.36-4.6.97-3.58,9.25-5.58Z"/>
  <path class="st45" d="M651.92,694.06c3.21,2.6,1.67,7.32,1.99,10.87.27.34,2.49-1.45,2.95-1,.21.2,1.87,5.14,1.93,5.51,1.89,12.25,1.75,34.37,1.04,46.9,0,.14-.94,1.12-1.03,2.39-.44,6.1-.87,12.26-.95,18.37-3.71.54-2.82-5.56-2.97-7.9-1.09.69-3.4,1.71-3.93,2.74-2.78,5.34-2.79,15.45-4.26,21.2-1.71,6.7-4.61,11.93-7.62,17.59-.74-.2-1.83-.7-1.73-1.17,3.11-13.81,7.67-28.89,12.53-42.01-.22-4.03.47-7.76,2.05-11.19,3.05-22.16,3.72-40.04,0-62.29Z"/>
  <path class="st36" d="M625.23,616.94l-3.01-2.59c-5.88,4.49-13.52,7.26-19.64,11.08-9.3,5.8-18.41,14.27-27.43,20.02-1.9,1.21-3.94,2.2-6.27,2.14,2.52-1.92,5.2-3.21,7.41-4.94,3.16-2.48,2.96-4.67,7.17-5.22,2.53-.33-.06-.95.25-2.69,5.86-1.42,4.19-2.36,7.57-4.79,9.63-6.91,17.3-11.09,27.94-15.55,1.68-.71,3.23-4.71,5.5-.37.61,1.16.27,2.3.51,2.91Z"/>
  <path class="st29" d="M744.86,587.28v.99c-3.48,1.98-11.36,4.53-11.86,4.94l4.71-3.88,7.15-2.06Z"/>
  <path class="st39" d="M494.72,937.27c-4.49,1.54,2.87,4.46.98,6.92-1.51-2.08-5.03-1.54-5.89-2.03-.08-.05.68-1.36.33-1.92-2.81-4.43-4.54-8.57-7.29-12.86,3.2,1.21,4.9,5.73,6.99,7.34,1.24.96,2.92.96,4.88,2.54Z"/>
  <path class="st5" d="M567.88,936.29c1.11-.63,4.31-.51,5.92-2.96l1,3.94c-3.28.63-6.37,1.07-8.42,3.96l-.48-2.96c.43-.29.82-1.33,1.98-1.98Z"/>
  <path class="st47" d="M1195.7,435.02c4.49,2.01,3.6,5.69,2.14,9.86.29,3.44-.09,6.09-1.15,7.94-.92,3.04-.84,7.35,3.05,7.35,1.16,7.85,3.44,15.29,6.84,22.31,2.43.28,2.35,1.28,0,1.98l5.46,5.96c-.73,1.68.42,2.97,3.46,3.87,1.07,4.35,4.72,9.17,7.41,11.99,9.09,6.57,18.87,9.92,30.15,7.83.92-2.09,2.94-3.47,6.05-4.13,3.17-2.44,6.1-3.37,8.78-2.79,4.7-3.02,6.22-5.33,10.88-7.91-.39.56-.58,1.55-.99,1.98-.94,2.51-2.81,4.41-4.83,6.08-10.25,8.48-23.18,13.18-36.7,9.74-8.8-2.41-12.28-4.79-18.79-10.88-4.43-5.01-8.06-10.28-10.88-15.82-1.22-1.9-1.86-2.93-2.97-4.94-1.92-4.04-3.29-8.44-3.95-12.85-.36-1.02-.65-1.96-.99-2.97l-2.02-3.76c-2.06-1.44-3.7,1.34-4.93,8.34l-.96.36c-1.77,1.76-1.83,3.39-2.97,4.94-3.11,7.19-8.4,13.33-13.84,18.79-3.19,4.12-5.05,5.08-7.91,7.91h-.99l-.91-2.35c4.03-4.91,8.13-9.88,12.3-14.92-3.67,4.06-7.36,7.97-12.33,10.38l-2.03-1.03c2.23-6.68,8.24-13.42,14.83-15.82,1.51-2.93,3.57-5.6,5.93-7.91-1.42-2.49-.16-5.52,3.78-9.09l1.59-6.78c4.72-6.01,6.23-13.52,4.51-22.54l1.98-1.14h.99Z"/>
  <path class="st49" d="M1414.2,564.54c.08,1.11.76,2.88.66,3.51-.18,1.09-1.47,1.14-1.65,1.43-.37,4.93-.7,9.87-.99,14.83-.25,13.99-1.24,23.86-2.97,37.57-1.82,1.57-2.66.48-2.97-1.48-.51-3.29.32-7.37,0-10.87-.27-2.9-2.12-6.44-1.94-8.87.21-2.85,3.79-5.37,3.79-8.94s-4.16-7.87-3.85-10.84,3.81-3.03,4.06-4.16c.56-2.59-1.94-4.78-2.07-6.83-.18-2.95,4.65-8.18,7.93-5.35Z"/>
  <path class="st52" d="M1401.35,680.22c1.99.23,1.91,1.22,0,1.98-1.57,12.99-5.42,24.91-11.53,35.79-.43,4.56-2.2,7.8-5.28,9.69-1.38,2.41-2.51,1.66-1.98-.99.12-.28-.12-.71,0-.99-2.11-2.8,2.21-8.76,4.94-9.89,1.36-3.58,2.77-7.24,3.95-10.88-1.31-6.29,1.79-15.06,5.93-19.77.94-7.04,1.96-14.42,4.94-20.76,1.59,4.85,1.12,11.02-.99,15.82Z"/>
  <path class="st20" d="M1116.6,510.16l1.36.16c2.26,10.6,14.49,11.1,23.3,7.3l2.03,1.44c1.1-.17,1.43-.12.99.99-5.79,2.22-10,6.36-17.28,4.92-3.18-.63-11.51-7.41-12.38-10.85-1.66-6.64-2.1-19.54.99-25.71-.01,8.65-1.09,13.37.99,21.75Z"/>
  <path class="st15" d="M1278.75,501.26c2.18,2.17-.46,4.86-2.97,4.94-3.29,4-6.11,2.61-7.94,4.45-.9.91-.68,2.79-1.18,3.23-.45.4-9.97,3.53-11.44,3.89-8.57,2.12-10.89,1.52-18.99-.7,16.98,2.24,30.15-3.79,41.52-15.82h.99Z"/>
  <path class="st15" d="M1367.73,517.08c-3.26.93-4.33,1.38-7.91,1.98-10.42,1.74-12.14,2.41-21.51-2.76-1.26-.69-1.77-1.9-2.22-2.19.23-.85.7-1.58,1.27-1.41,13.51,4.05,23.24,5.57,37.15-.32l1.13.74c.07,3.94-5.11,3.15-7.91,3.95Z"/>
  <path class="st8" d="M1384.54,727.67c2.68,3.68-1.15,8.87-3.95,11.86,2.35,2.82-2.26,11.39-5.93,10.88.4,2.61-.09,2.88-1.98.99.1-4.39,2.9-9.46,5.93-12.85,1.44-3.5,2.11-7.68,3.95-11.86l1.98.99Z"/>
  <path class="st48" d="M1165.05,506.21h.99c-3.57,3.54-6.32,7.63-10.99,10.27-3.66,2.07-7.41,2.29-10.76,3.57l-.99-.99,1.37-2.56c6.29-2.81,12.13-6.39,17.54-10.74l2.85.45Z"/>
  <path class="st15" d="M1408.27,627.82c-.27,1.83.25,4.08,0,5.93.46.4.88.83,1.15,1.34,1.33,2.5-4.69,25.77-7.08,29.31-1.52,6.97-3.09,13.87-4.94,20.76.02-1.65-.03-3.3,0-4.94.02-1.14-.25-3.13,0-3.95-2.08-1.64-.25-3.6,1.98-3.95.16-.92-.16-2.05,0-2.97.8-4.49,5.04-32.1,5.93-33.62.05-.09,1.7.4,1.99-.65,1.01-3.63-2.67-8.14.98-7.26Z"/>
  <path class="st49" d="M1382.56,725.7c-2.69.47-2.19-1.78-2.06-3.52.28-3.99,6.19-5.91,5.03-10.33l1.97,3.96c-1.56,4.09-3.73,7.1-4.94,9.89Z"/>
  <path class="st15" d="M1413.21,545.75c-.5-10.98,0-20.79,0-31.64,0-5.69-2.03-5.12-2.02-5.45.03-1.36,2.25-4.03,3.01-5.42l-.99,42.51Z"/>
  <path class="st15" d="M1317.31,474.57l1.53.99c2.18,13.04,5.6,24.89,14.41,34.76l-.13,1.82c-.75-.57-2.68-.73-3.95-1.98-1.59-1.56-2.71-4.81-3.95-6.92-7.83-13.26-8.86-23.32-9.89-38.56,1.19,2.86,1.36,6.64,1.98,9.89Z"/>
  <path class="st15" d="M1187.79,479.51c-.32,6.53-6.25,11.04-10.24,15.97-1.05,1.3-1.39,2.97-3.61,2.82,4.69-6.06,9.31-12.58,13.84-18.79Z"/>
  <path class="st15" d="M1217.45,506.21c-3.7-3.47-3.61-4-6.26-7.58-1.58-2.13-5.86-3.05-4.62-8.24,3.44,5.33,7.83,10.22,10.88,15.82Z"/>
  <path class="st15" d="M1372.67,751.4c-.57.13-1.34-.09-1.98,0,2.08-3.68,2.42-8.09,5.93-11.86.37-.39,1.45-.6,1.98-.99-1.69,4.1-4.05,8.67-5.93,12.85Z"/>
  <path class="st15" d="M1190.75,474.57l3.02-9.83c5.49-1.07,3.78,1.61,4.89,4.89l-3.95-3.96c-.05,1.46-1.71,8.15-2.17,8.75-.4.52-1.66.02-1.79.15Z"/>
  <path class="st15" d="M1203.61,485.45c-.11-.19-1.06-.38-1.39-1.09-1.72-3.67-3.12-7.65-2.56-11.76,1.48,4.23,3.79,8.2,3.95,12.85Z"/>
  <path class="st4" d="M833.84,412.28l.48-6.4c-1.49-.25-1.16-1.21.98-2.9.51-8.55,8.45-8.08,9.21-.34.01.14-1.67-2.26.21-2.22,1.33,1.66,1.31,4.23,3.95,3.95v.99c-1.28.34-3.19-.5-3.86,1.63-.32,1.01.2,5.63-.09,8.26-.28.86-.61.85-.99,0,.3-4.05,1.35-13.98-4.81-11.7-1.7,6.75-6.71,14.44-8.37,20.86-3.17,12.26-7.29,23.98-10.55,36.32-2.28-3.49.61-5.14.95-7.47.3-2.05.01-4.28.04-6.37.06-4.55,2.73-4.03,4.74-8.61,2.95-6.73,5.56-18.25,8.11-26Z"/>
  <path class="st55" d="M837.79,442.93c2.42-8.37,5.28-18.99,5.93-27.68h.99c-.97,8.67-1.78,20.7-6.92,27.68Z"/>
  <path class="st29" d="M1431.01,458.75c-.87,12.28-.27,24.8-1,37.07-.66,11.03-3.25,22.83-2.96,34.12-1.49,6.05-.03,6.31.09,11.37,1.06,44.72-4.05,88.5-13.24,132.19-3.07,14.59-6.35,29.7-11.57,43.3-3.28,5.26-5.82,10.98-7.91,16.81-1.09,2.12-1.58,1.62-1.98,4.94-.02,1.52-.56,2.34-1.61,2.44.29,5.68-3.69,10.5-7.29,14.36-.75,1.31-1.72,3.55-1.98,3.95-2.68,1.02-3.66-.88-2.94-5.7-2.79-.04-4.11-1.11-3.98-3.2,2.66-3.78,4.13-6.73,5.93-10.88l5.49-7.08-1.02-2.27c1.78-5.35,4.07-10.5,6.89-15.46,5.44-8.62,7.13-20.42,8.6-31.42l.8-1.11c.05-.65-.04-1.32,0-1.98,2.14-13.29,4.43-26.71,7.72-40.15.27-1.11,1.16-1.85,2.17-2.36,1.21-9.91,2.62-19.88,4.23-29.93-1.01-6.78.18-12.11,3.58-16l-2.15-4.62c.73-6.54,1.32-12.95,1.78-19.24-.44-15.07-.59-30.6-.45-46.6,1.89-6.01,2.03-10.28.93-16.48,2.5-14.35,3.89-28.92,4.19-43.73.94-8.64,2.39-18.09,4.69-26.09,1.61-2.51.62-5.48,1.22-8.17s3.26-6.8,3.66-9.19c.8-4.75.07-10.16,1.16-15.65.47-2.35,2.65-5.55,2.64-7.21,0-1.38-1.58-2.36-1.7-3.85-.46-5.88,1.55-10.54,1.91-16.25,2.31-.28,3.6.07,3.99,2.51.19,1.14-.94,11.88-1.25,13.58-.36,1.92-2.52,4.9-2.52,5.19.03.93,2.73,2.43,2.73,2.95,0,.49-2.5,1.75-2.73,3.08-.19,1.11.93,2.66.72,3.79-3.17,17.19-5.61,35.03-6.88,52.95Z"/>
  <path class="st59" d="M1374.65,750.41c.78.02,3.94,1.99,5.94.98.57.52-1.13,6.98.98,7.91-3.2,5.05-12.06,17.16-16.34,20.73-2.92,2.44-6.45,4.12-9.86,1.02-3.98-3.63,2.46-6.72,4.45-9.39,1.54-2.06,3.21-6.17,4.89-7.75,1.04-.97,2.6-.47,2.86-.77.47-.54-.05-3.19.66-4.82s2.77-3.22,4.44-6.93c.6-.14,1.53-1,1.98-.99Z"/>
  <path class="st59" d="M1333.13,798.86c-2.04.36-5.86.15-7.9-.49,2.95-3.19,7.6-3.16,11.6-5.16.92-.46,10.14-7.69,10.58-8.21,1.38-1.63.44-5.39,4.51-3.45.29.14,4.89,3.71,4.98,4.01.6,1.98-3.96,5.2-5.62,6.24-2.83,1.78-15.12,6.53-18.15,7.06Z"/>
  <path class="st59" d="M1392.45,743.49c-2.39,3.1-2.49,4.96-3.95,7.91-2.1,1.17-2.33.83-3.95,3.95h-.99c1.07-1.88,5.62-8.87,5.77-9.63.49-2.47-.52-3.93-.83-6.18l3.95-.99c-.19,1.61.13,3.32,0,4.94Z"/>
  <path class="st59" d="M1394.42,733.61c1.05-5.53,3.96-12.93,7.91-16.81-2.48,6.46-4.76,10.67-7.91,16.81Z"/>
  <path class="st22" d="M1446.82,348.02c.15-5.94-.04-13.42,1.07-19.2.44-2.28,1.54-3.33,1.89-4.53-.86,5.27-.44,11.2-1.01,16.29-.31,2.76-1.65,5.46-1.96,7.43Z"/>
  <path class="st51" d="M1231.29,296.61c1.7.17,1.44,1.04,0,1.98-.43,4-.67,8.88-1.09,12.25-.97,7.81-3.6,15.42-3.85,23.34-.94-1.95-1.85-3.72-1.99-5.93l-1.96.99c1.36-7.47,2.17-14.97,2.43-22.5-2.93-3.96,4.24-17.93,6.47-10.12Z"/>
  <path class="st10" d="M1231.29,296.61c-3.8-3.07-5.38,1.41-5.76,4.71-.28,2.44.75,4.19.62,5.67-.77,8.52-2.57,14.44-3.76,22.25-.12.81-.72,2.34-.99,3.95,2.75.99,2.95,5.81,0,6.92-.16.85-1.61,2.78-1.98,4.94,2.26,1.16,1.74,4.18-.99,3.95-1.04,6.29-1.24,11.8-1.98,17.8,1.93,3.33,1.61,11.05-2.97,10.88l-.86-2.89c2.86-20.01,6.36-39.78,10.5-59.34-.98-4.84-1.86-9.64-2.65-14.41,2.51-2.48,4.44-5.46,5.79-8.95,3.87-7.17,10.18,1.29,5.02,4.52Z"/>
  <path class="st6" d="M981.15,437c.32-4.73,3.8-8.04,5.93-11.86.15,1.37.09,2.62-.52,3.88-.98,2.01-4.2,5.85-5.41,7.98Z"/>
  <path class="st40" d="M1342.02,351.97c-3.31,17.19-7.74,33.79-9.89,51.41h-.99l-1.55-3.95c.97-14.31,3.38-28.24,6.48-42.21.64-2.87,2.45-10.28,5.95-8.22-.17.9.17,2.07,0,2.97Z"/>
  <path class="st5" d="M1039.49,490.39c.85,6.63.93,11,3.78,17.48,2.04,4.66,2.07,3.75,5.12,6.25,2.16,1.77,4.52,3.5,6.92,4.94.91.55.68,1.39,3.27,2.15,5.28,1.56,9.27,1.08,14.21-.99,5.7-2.39,10.31-8.27,16.13-9.07,1.85,1.9-5.16,11.02-6.85,12.42-.54.45-9.81,6.21-10.38,6.43-4.02,1.6-15.55,2.13-19.35-.07-2.28-1.32-6.02-6.46-7.97-7.39-1.54-.74-3.29-.26-3.89-.52-1.62-.69.06-3.69,0-4.36-.06-.74-1.93-.41-1.99-1.18-.05-.59,1.13-1.92.92-2.28-.57-.99-6.22-1.42-4.9-7.37.12-.56,3.93-1,2.01-2.6-.3-.25-2.47.37-2.86-.06-.27-.29-.99-6.62-1.1-7.85-2.29-8.66-1.02-8.42,6.92-5.93Z"/>
  <path class="st8" d="M711.24,148.3v1.98c-1.49-.07-3.05.85-4.42.79-2.54-.12-10.66-1.78-12.38-.78-.15.09,1.4,2.24-.51,2.95-1.6-.44-3.22-1.15-4.92-1.07-11.5.59-27.9,4.69-39.05,8-5.42,1.61-12.46,4.83-18.39,4.98-3.43.09-2.05-1.63-2.45-1.92-1.87-1.37-4.73,5.12-6.49,5.67s-3.77-.14-5.59.37c-1.55.44-5.02,4.1-7.61,5.24-4.05,1.79-10.71,3.32-15.33,4.98-.6.22-2.2-.89-3.46-.12-1.49.91-1.48,4.64-3.64,5.37-2.63.89-6.42-1.15-7.1-.75-.36.21-3.53,6.13-4.78,6.89-1.36.82-3.57.68-5.15,1.52-5.2,2.75-5.39,5.75-8.99,9.79,5.15,1.92,2.67,5.85-1.77,3.77-1.62-.76-.68-2.88-2.67-2.28-2.4,4.67-5.77,3.34-8.93,6.89-5.11,5.76.81,5.42-1.47,10.9-.65.04-1.33-.07-1.98,0-1.65-2.34-3.96-1.68-6.92,1.98-2.69,1.88-3.58,5.07-4.94,7.91-.3.49-.63.48-.99,0-.2-3.41,2.27-10.49,4.49-12.84,1.07-1.13,2.93-.76,3.27-1.15.62-.71-.3-2.97.25-3.68.2-.25,3.75-.72,5.87-2.55,3.29-2.85,3.31-7.41,5.49-9.34,6-5.31,7.36,1.06,7.81.89.92-.34,6.31-7.73,6.9-8.93,1.36-2.78-1.14-5.64,3.94-5.72,1.51-.02,3.34,1.26,4.86.76,1.65-.53,1.34-3.48,3.17-4.81,2.28-1.66,7.33-2.06,9.52-3.13,6.3-3.08,11.89-6.15,18.39-8.7,4.4-1.73,13.09-2.88,13.05-8.02,6.58,3.34,3.58,1.35,5.93-.44,4.12-3.15,8.67-1.82,12.91-2.95,7.06-1.89,18.52-7.19,24.36-8.44,4.1-.88,9.11-.25,13.78-1.84,1.49-.51,1.4-2.15,1.92-2.2,2.11-.2,3.51,2.15,5.84,2.14,2.08,0,3.25-1.73,4.99-2.04,6.07-1.09,17.79-1.37,23.19-.05Z"/>
  <path class="st52" d="M532.29,231.35c-.73,1.52-2.53,3-2.82,4.68-.36,2.06,1.3,5.42.84,6.19-.05.09-1.29-.71-1.97-.37-1.39.69-2.3,2.73-3.96,3.34.21-.41-.3-1.77.49-2.92.74-1.07,2.96-1.27,3.36-2.67.55-1.96-1.85-5.96,3.07-8.25h.99Z"/>
  <path class="st43" d="M1162.08,498.3c2.14-1.51,5.34-2.94,7.41-4.94l10.38-10.87c.13,7.39-3.31,9.72-7.88,14.38-4.13,4.2-1.1,1.38-2.46,4.35-.72,1.56-3.81,2.95-4.48,4.99-7.27,4.87-12.9,10.06-21.75,12.85-4.15,1.31-12.02,3.63-16.04,2.7-1.52-.35-8.87-4.93-9.73-6.1-1.59-2.15-.51-3.85-.92-5.51,1.48-1.64.71-8.67,4.43-7.9,2.9.6-.36,8.39,3.91,10.94,8.33,4.98,20.46-1.57,27.56-6.18,4.5-2.93,6.37-5.43,9.58-8.71Z"/>
  <path class="st42" d="M863.5,362.85c3.16,1.66.55,5.02-1.76,6.77-6.03-.59-10.72.78-14.06,4.11-1.79,1-3.22,3.35-4.66,3.79-4.42,1.34-10.82-3.89-8.19-8.74.92-.59,3.04-3.7,4.94-4.94,9.16-5.99,14.13-4.94,23.73-.99Z"/>
  <path class="st60" d="M781.44,412.27c.99-1.38,3.66-4.85,4.96-5.42,1.64-.72,4.29-.21,4.8-.63.34-.28,1.04-6.59,4.07-6.8.13,3.38,2.14,6.68-1.42,8.97-2.92,1.88-4.04-.16-5.88.15s-3.37,4.84-6.54,3.72Z"/>
  <path class="st14" d="M1033.55,466.66c1.81-.57,2.78.49,2.92,3.19,0-1.4.93-2.4,2.02-3.19,2.59,4.19-.34,9.69-.43,14.33-.06,3.21,1.03,6.38,1.42,9.4l-2.47,3.96c-.7,0-1.78-4.92-4.44-3.96.11,1.95-.17,3.98,0,5.93-2.52-3.45-2.6-11.25-2.05-15.38.22-1.67,2.96-1.8,2.06-4.4l1.96,1.01c-.92-3.99-1.11-7.18-.98-10.88Z"/>
  <path class="st14" d="M1040.47,427.11c-1.78,1.49-2.57,3.88,0,4.94-.11,9.63-.63,16.05-1.67,25.33-.2,1.78,1.99,4.83-.31,6.3-1.69-.8-3.08-2.31-3.95-3.95.34-7.88-.79-15.85,1.9-23.31l2.06-21.18c2.98,1.64,3.16,6.55,3.02,9.45-.06,1.26-1.05,2.28-1.05,2.42Z"/>
  <path class="st5" d="M1034.54,459.74h3.96c.08,1.3-.09,2.64,0,3.95.07.97.01,1.99,0,2.97-.02,1.65.04,3.3,0,4.95-5.49.88-3.26-1.25-4.94-4.95.09-2.68.93-5.53.99-6.92Z"/>
  <path class="st5" d="M1040.47,427.11c-.05,1.64.02,3.3,0,4.94l-2.96,1.98c.45-3.41-1.92-8.01,2.96-6.92Z"/>
  <path class="st26" d="M1428.04,427.11c.02,2.55.04,5.76,0,7.91-.18,9.77-2.96,17.57-3.99,26.17-.77,6.42.91,14.55.11,20.86-.25,1.93-2.12,1.01-2.17,2.86-.06,2.27,1.19,4.47,1.13,6.91-.11,5-3.44,9.96-3.68,13.03-.25,3.3,2.54,5.97,2.61,7.78.08,2.18-3.64,6.49-3.55,10.74s2.43,3.43,2.56,3.65c1.23,2.02-2.31,2.44-2.7,3.11-1.92,3.25,1.9,9.39.82,13.02,3.1,1.83.79,10.78.85,14.96.05,3.34,1.97,7.18,1.07,10.71-.2.77-1.97.64-1.99,1.23-.04,1.09,1.16,2.92,1.1,4.86-.09,2.95-2.33,4.76-2.1,8.87.2,3.53,3.24,6.81,3.07,8.84-.04.4-4.3,2.91-4.83,6.23-.3,1.87,1.08,4.33.9,6.72-.53,7.2-2.7,14.25-4.03,19.96-.83,3.55,1.35,8.94-2,12.18l-1.6-1.4c1.08-7.76,2.27-15.54,3.58-23.32,1.6-10.59,1.62-20.27,1.98-30.65l.88-4.28c-.58-16.52-.21-32.89,1.1-49.11-.78-4.29-.67-8.78.99-12.85-.86-.33-.86-.66,0-.99l-.91-4.32c2.02-27.5,4.58-54.63,7.69-81.4.25-3.04,1.07-5.44,3.1-2.27Z"/>
  <path class="st13" d="M1441.88,316.38c.2,3.23-.94,6.16-1.09,9.39-.23,5.18.5,3-.81,7.18s-.3,9.2-1.26,12.4c-1.8,5.95-3.54,10.4-3.84,17.01-.11,2.47,1.65,5.52,1.12,7.71-.26,1.09-2.64,1.08-3.01,2.24-.58,1.83,2.09,3.39,1.98,5.77-.1,2.24-3.4,7.06-3.87,11.08-1.35,11.52-3.18,27.03-3.08,37.95-3.55-.56-1.67,6.04-2.03,8.35-4.13,26.56-6.02,52.76-7.86,79.64-.47.39-.94.7-1.42.71-1.11.03-.68-8.37-.56-9.6,4.35-56.44,12.48-113,19.77-169.07,3.31-3.23,2.39-10.39,3.41-14.87.54-2.35,1.8-4.01,2.52-5.89Z"/>
  <path class="st13" d="M1411.23,637.7c-1.31,9.34-5.05,19.13-6.89,27.4-1.04,4.68,1.86,11.16-3,15.12.35-5.27.88-10.54.99-15.82,2-9.16,4.72-21.62,5.93-30.65,3.32-1.76,1.68-6.77,2.23-10.13s2.24-7.49,2.72-10.63c1.22,5.26-1.49,9.71-1.98,14.33-.35,3.31.46,7.2,0,10.39Z"/>
  <path class="st13" d="M1418.15,515.11c-.02.33.02.66,0,.99-1.65,4.08-1.74,8.56-.99,12.85-.78,16.38-.42,32.71-.34,49.13,0,1.65-.33,3.14-1.63,4.26.88-25.42-.96-50.88.99-76.13.31,2.98-1.32,7.55,1.98,8.9Z"/>
  <path class="st56" d="M1421.12,435.02c.4-8.72,1.3-14.53,2.97-22.74.02,7.41.1,15.8-2.97,22.74Z"/>
  <path class="st15" d="M1421.12,437c-.13,3.54,1.34,12.02-2.97,11.86.28-3.42.78-9.58,2.97-11.86Z"/>
  <path class="st56" d="M1425.07,409.32c-3.6-1.4-.3-2.24-.03-4.48.33-2.75-.94-6.5,1.01-8.38-.16,4.97.13,7.85-.99,12.85Z"/>
  <path class="st15" d="M1412.22,584.31c.08-4.26-.91-11.69.99-14.83-.55,4.7,1.23,10.71-.99,14.83Z"/>
  <path class="st9" d="M1210.53,334.18l2.47-17.85c1.41-6,13.24-6.86,9.6,1.46-3.97,19.61-8.4,43.22-11.51,64.55-2.61,17.93-4.41,35.26-4.31,53.1l-1.19.57c-3.48,1.33-3.16-2.84-2.96-5.47-3.73,1.64-3.33,3.74-.39,6.2,1.1,2.36.86,5.9-1.93,6.84.41,7.44,2.24,14.82,5.5,22.14l.83,7c4.3,2.21,8.75,11.13,2.9,12.74-.98,2.35-2.08,1.07-2.97-.99-.07-.64.09-1.35,0-1.98-3.34-6.66-5.57-13.79-6.7-21.39-3.69-1.2-4.38-4.82-3.18-8.27-.26-4.56,1.13-8.98,1.05-12.41-.06-2.25-1.8-3.41-2.04-5.39-.04-.33.04-.66,0-.99l1.98-30.65c.68-4.77,1.2-9.48,2.08-14.24.49-2.68,5.04-13.53-1.59-13.11-2.1.13-3.79,4.59-10.87,3.62-2.69-5.91,13.76-10.35,14.82-11.87-.2-2.99,2.51-5.22,3.22-7.66,2-6.87,3.98-18.65,5.19-25.96Z"/>
  <path class="st13" d="M1211.52,322.31c.45-3,.65-6.2,1.09-9.29,1.53-10.78,3.18-21.83,8.75-31.79.63-1.12,4.77-6.96,5.42-7.43,7.51-5.52,12.87,10.06,9.49,15.22-.53.8-2.07.43-2.03,1.18.09,1.65,2.63,3.18,2.01,5.42-1.36,1.13-3.77.26-2.98,3.96l-1.97-.99c.07-.64,0-1.33,0-1.98-.14-12.85-4.34-.97-6.54,2.91-.73,1.29-3.19.21-2.33,4.41.68,3.33,2.64,3.79,1.89,8.94-3.17,21.64-8.73,42.66-10.82,64.81-.06.65.06,1.33,0,1.98-1.47,1.18-1.5,2.93-1.83,4.6-5.18,26.25-5.52,56.36-.15,82.41-.28.86-.61.85-.99,0l-2.35-1.44c-2.14-8.93-3.98-17.85-4.44-27.06l1.84-2.16c.9-4.17,1.08-10.03,1.06-14.34-.12-26.44,5.43-48.44,9.76-74.21,1.49-8.86,1.7-22.4,4.04-30.41.27-.91,1.61-.43,1.98-1.17.02-4.32-7.08-1.31-8.66.74-.22,5.7-1.24,12-3.23,17.55.57-3.44.44-8.17.99-11.86Z"/>
  <path class="st47" d="M1195.7,434.03c-1.14-10.19.59-20.96,1.98-30.65-.26,10.21,1.02,20.74-1.98,30.65Z"/>
  <path class="st59" d="M1342.02,349.01c-1.87,1.72-2.82,4.49-3.51,6.87-4.72,16.22-5.47,31.25-7.37,47.51-2.62,22.46-4.47,36.95-2.98,59.83.42,6.4-.03,12.89,1,19.27l-2.42-.97c-1.76-8.26-.59,9.21,4.01,10.61l5.63,13.18c4.69-1.03,12.74,4.44,12.56,8.82-.99,3.24-9.96-.28-12.25-1.54-10.8-5.95-16.54-25.8-17.84-37.49-1.46-13.18-1.96-27.23-1.55-40.06.04-1.73.62-2.71,1-1.12-.17-10.13.9-20.14,3.22-30.02,4.4-25.83,10.18-51.38,17.34-76.62-.68-3.79-.29-6.43,1.17-7.92,4.2-2.04,2.8-3.08,4.25-4.64.44-.47,5.38-2.46,6.07-2.27,5.1,1.4-4.56,17.37-5.68,20.95-1.62,5.19-1.73,10.56-2.67,15.62Z"/>
  <path class="st14" d="M1348.94,514.12c-1.51-.71-7.81-6.7-8.63-6.88-1.58-.37-3.75.46-5.03-.24s-5.1-11.57-6.17-13.82c-.53-1.11-2.26-1.18-2.72-2.45-3.2-8.86-3.24-21.41-3.35-30.5-.04-3.21-3.32-10.87,2.17-11.36-1.45,4.12.62,8.25.97,12.37.76,8.88-.27,12.19,2.98,21.24,1.42,3.95,8.67,18.28,11.42,20.71,3.7,3.26,17.58,5.53,22.44,4.77,5.36-.84,13.63-6.92,18.54-9.66,2.19-1.22,7.53-4.62,9.38-4.96,3.37-.62.4,4.51-.46,5.48-2.52,2.81-8.54,8.49-11.89,10.36-2.66,5.1-25.68,9.21-28.59,6.43-.43-.41-.76-.93-1.07-1.48Z"/>
  <path class="st42" d="M1205.59,436.01c.86,13.97,2.07,17.75,4.94,30.65.58,4.2,1.9,8.16,3.95,11.86,5.55,7.09,4.95,12.85,12.85,19.77,1.29,5.4,11.53,9.66,16.41,9.8,2.23.06,11.04-.93,13.09-1.56,1.56-.48,11.42-7.89,12.01-7.25.51,3.2,1.8,5.31-.98,7.91-4.92,3.16-9.2,5.72-14.83,6.92-7.78,1.02-12.53.85-19.67-2.01-9.66-3.87-14.02-8.01-18.46-17.26-3.11-1.69-4.26-3.6-3.46-5.73-1.58-.91-2.66-1.63-1.91-3.67,2.29-4.19-.95-10.43-5.01-11.42,1.5-10.36-8.37-21.03-5.83-31.4.17-.69,3.1-.46,1.91-4.92-.17-.64-1.47-.46-2.05-2.17-1.92-5.68,1.65-4.82,3.11-6.85,1.32-1.83.5-4.71,2.91-5.52.91,3.51-.28,6.93-.05,10.45.09,1.26,1.04,2.25,1.04,2.4Z"/>
  <path class="st9" d="M1214.48,478.52c-5.69-7.27-2.35-4.65-3.95-11.86h.99c.85,4.13.84,8.05,2.97,11.86Z"/>
  <path class="st55" d="M844.71,400.42c-.16.9.54,2.7-.49,2.96-1.11-2.25-5.1-7.01-7.36-3.88-.76,1.05.82,3.53.67,4.46-.17,1.05-2.48.96-2.74,2.08-.49,2.1.01,3.29-.96,6.24v-6.92c-.23-.28-4.55,2.66-2.99-1.49.26-.69,2.17-.21,3.78-2.16,1-1.22,3.46-5.61.2-6.24,1.36-1.16,2.44-4.07,4.66-4.74,8.36-2.53,6.11,4.6,5.23,9.69Z"/>
  <path class="st8" d="M732,149.29c-4,.97-9.44,2.99-13.54,2.93-1.55-.02-2.16-.94-2.28-.95,3.82-4.44,5.47-2.15,9.39-2.16,2.77-.01,3.36-1.88,6.43.18Z"/>
  <path class="st40" d="M1317.31,435.02c.04,2.44.69,4.35.79,6.43.7,14.79.69,29.91,4.22,44.43.88,3.6,3.28,14.12,6.13,16.18.59.43,2.22-.06,2.55.31.52.59-.2,2.49.42,3.57,3.29,5.77,11.53,7.25,17.53,8.18,10.21,1.58,20.34.27,29.66-4.94v1.98c-1.43.22-2.29,1.71-2.97,1.98-7.97,3.2-21.3,6.13-29.72,4.51-3.9-.75-5.99-3.41-9.83-3.52-1.09-.7-1.89-1.16-2.97-1.98-9.79-10.47-13.2-23.89-15.82-37.57.03-5.69-.1-11.48-.38-17.14-.12-2.35-1.58-4.62-1.59-7.09-.03-3.97,2.01-9.38.96-13.91-.14-.92.32-1.08,1.02-1.41Z"/>
  <path class="st52" d="M537.23,223.44c1.75-5.15,7.54-10.18,6.92-1.98-2.33.24-4.99.62-6.92,1.98Z"/>
  <path class="st26" d="M871.41,368.78c1.37,2.7.79,5.52-2.51,5.99-1.78.25-1.15-1.66-2.18-1.97-6.02-1.8-13.45-2.18-19.05.92.92-1.49.88-3.95,3.67-4.74,5.16-1.47,10.39,2.49,12.15-6.14,5.88,2.42,3.93,2.57,7.91,5.93Z"/>
  <path class="st31" d="M1340.05,319.35c-1.8,2.07.05,4.24-.11,6.32-.44,5.91-3.64,18.6-5.29,24.35-3.45,12.05-8.95,26.35-10.41,39.13-.64,5.6-.18,4.56-1.55,10.24-1.1,4.54-.08,12.2-.58,14.2-.31,1.26-2.37,1.95-2.81,4.16-.93,4.65,1.04,12.46.04,16.72-.27,1.17-1.55.34-2.03.57-.23-13.57.57-20.39,3.91-32.35,3.12-11.17,3.34-26.09,6.27-38.06s8.17-23.99,10.35-36.11c.52-2.88-.32-6.39.19-8.55.29-1.22,1.59-.4,2.02-.61Z"/>
  <path class="st29" d="M1444.84,342.09c-1.3,3.92-.24,9.76-1,13.16-.18.79-1.81.27-2.04,2.1-.59,4.57,1.94,9.63,1.08,14.4h-4.95c.97-3.52-1.33-8.13-.82-11.13s4.39-7.1,3-11.92l4.74-6.62Z"/>
  <path class="st27" d="M455.17,770.19c-2.45,7.11-6.38,14.07-8.62,21.53-1.44,4.81-.28,5.05-.3,8.53,0,.23-2.95,2.11-2.95,3.56,2.01-9.97,2.41-15.61,6.73-25.4,1.09-2.47,3.64-5.79,5.14-8.21Z"/>
  <path class="st34" d="M542.18,669.34c5.59-4.84,10.15-8.4,15.82-12.85l-9.42,8.87-6.4,3.98Z"/>
  <path class="st27" d="M463.08,756.35c.14-3.39,1.89-7.24,4.94-8.9-1.57,2.42-3.24,6.07-4.94,8.9Z"/>
  <path class="st44" d="M1209.54,485.45c.69.41,4.78,3.22,4.94,3.47,1.08,1.81-3.79,1.34-1.96,3.44.62.72,3.87.32,4.93.01-2.92,6.94,1.84,4.9,2.84,6.05.74.86-.46,4.01.28,4.74.31.3,2.03-.25,2.6.3.49.47-.21,1.87.92,2.75,3.82,2.96,13.37,6.53,17.85,7.73,2.42.65,7.98-.95,11.11.18-12.83,2.73-17.19,1.14-27.79-5.33-1.11-.68-2.87-.44-3.83-1.11-.59-.41-6.24-10.42-7.55-12.23-3.14-4.36-6.66-5.31-7.3-10.99.78.67,2.33.61,2.97.99Z"/>
  <path class="st44" d="M1196.69,452.82c.14,2.41.65,4.57.99,6.93l2.95-1c.84,5.73,1.95,11.34,3.42,16.86.62,2.35,1.91,2.65,2.52,6.87-2.71-2.71-4.73-8.86-5.7-12.59-.61-2.32.34-5.01-.71-7.22-.83-1.74-7.9-4.21-3.48-9.86Z"/>
  <path class="st50" d="M1182.85,474.57c-2.05,4.68-2.69,4.62-5.93,7.91-.15-2.68,3.47-7.72,5.93-7.91Z"/>
  <path class="st0" d="M1401.35,682.19c-.6,7.55-1.82,13.05-2.17,20.28-.27,5.64-3.29,6.03-4.2,8.35-.4,1.02.72,2.58,0,3.98-.81,1.59-3.61,1.76-4.32,3.67-.64,1.73-.27,6.83-1.31,8.07-.14.16-1.49-.59-1.84-.31-3.12,2.49,1.25,5.57.97,6.82-.11.5-6.52,6.03-7.9,6.49,1.52-3.49,2.65-8.77,3.95-11.86,5.84-13.8,12.13-25.7,14.8-41.05.3-1.72-.44-3.73,2-4.43Z"/>
  <path class="st13" d="M1417.16,528.95c-1.71-3.03-1.96-10.16.99-12.85-.29,4.32-.78,8.52-.99,12.85Z"/>
  <path class="st5" d="M1226.34,289.69c.49,3.71-4.37,13.49-8.93,10.41-1.71-1.16-.73-2.11-.38-3.42,1.45-5.5,2.24-3.29,5.63-4,1.41-.3,1.09-3.74,3.68-2.99Z"/>
</svg>